<svg width="22" height="23" viewBox="0 0 22 23" fill="none" xmlns="http://www.w3.org/2000/svg">
<path d="M7.34766 11.1522C7.34766 10.1663 7.73472 9.22073 8.4237 8.52358C9.11267 7.82644 10.0471 7.43478 11.0215 7.43478C11.9958 7.43478 12.9303 7.82644 13.6193 8.52358C14.3082 9.22073 14.6953 10.1663 14.6953 11.1522C14.6953 12.1381 14.3082 13.0836 13.6193 13.7808C12.9303 14.4779 11.9958 14.8696 11.0215 14.8696C10.0471 14.8696 9.11267 14.4779 8.4237 13.7808C7.73472 13.0836 7.34766 12.1381 7.34766 11.1522Z" fill="#1ABCFE"/>
<path d="M0 18.587C0 17.601 0.387063 16.6555 1.07604 15.9584C1.76502 15.2612 2.69947 14.8696 3.67383 14.8696H7.34766V18.587C7.34766 19.5729 6.96059 20.5184 6.27162 21.2156C5.58264 21.9127 4.64819 22.3044 3.67383 22.3044C2.69947 22.3044 1.76502 21.9127 1.07604 21.2156C0.387063 20.5184 0 19.5729 0 18.587Z" fill="#0ACF83"/>
<path d="M7.34766 0V7.43478H11.0215C11.9958 7.43478 12.9303 7.04313 13.6193 6.34598C14.3082 5.64884 14.6953 4.7033 14.6953 3.71739C14.6953 2.73148 14.3082 1.78594 13.6193 1.0888C12.9303 0.391653 11.9958 0 11.0215 0L7.34766 0Z" fill="#FF7262"/>
<path d="M0 3.71739C0 4.7033 0.387063 5.64884 1.07604 6.34598C1.76502 7.04313 2.69947 7.43478 3.67383 7.43478H7.34766V0H3.67383C2.69947 0 1.76502 0.391653 1.07604 1.0888C0.387063 1.78594 0 2.73148 0 3.71739Z" fill="#F24E1E"/>
<path d="M0 11.1522C0 12.1381 0.387063 13.0836 1.07604 13.7808C1.76502 14.4779 2.69947 14.8696 3.67383 14.8696H7.34766V7.43478H3.67383C2.69947 7.43478 1.76502 7.82644 1.07604 8.52358C0.387063 9.22073 0 10.1663 0 11.1522Z" fill="#A259FF"/>
</svg>
