<svg width="42" height="41" viewBox="0 0 42 41" fill="none" xmlns="http://www.w3.org/2000/svg">
<g clip-path="url(#clip0)">
<path d="M32.8869 0H9.12594C4.43994 0 0.639893 3.81061 0.639893 8.50961V32.3365C0.639893 37.0355 4.43994 40.8462 9.12594 40.8462H32.8869C37.5745 40.8462 41.3729 37.0355 41.3729 32.3365V8.50961C41.3729 3.81061 37.5745 0 32.8869 0ZM14.2176 32.3365H9.12594V13.6154H14.2176V32.3365ZM11.6717 11.4573C10.0322 11.4573 8.70163 10.1128 8.70163 8.45515C8.70163 6.79748 10.0322 5.45296 11.6717 5.45296C13.3113 5.45296 14.6419 6.79748 14.6419 8.45515C14.6419 10.1128 13.3129 11.4573 11.6717 11.4573ZM34.5841 32.3365H29.4924V22.799C29.4924 17.0669 22.7036 17.5009 22.7036 22.799V32.3365H17.612V13.6154H22.7036V16.6193C25.0729 12.2181 34.5841 11.893 34.5841 20.8332V32.3365Z" fill="white"/>
</g>
<defs>
<clipPath id="clip0">
<rect x="0.639893" width="40.733" height="40.8462" fill="white"/>
</clipPath>
</defs>
</svg>
