<svg width="42" height="41" viewBox="0 0 42 41" fill="none" xmlns="http://www.w3.org/2000/svg">
<path d="M35.6771 0H5.922C2.89063 0 0.433105 2.46423 0.433105 5.5041V35.3419C0.433105 38.3817 2.89053 40.846 5.922 40.846H20.5971L20.6221 26.2498H16.8405C16.3491 26.2498 15.9502 25.8513 15.9483 25.3585L15.9302 20.6536C15.9283 20.1581 16.3283 19.7554 16.8225 19.7554H20.5972V15.2092C20.5972 9.93346 23.8104 7.06076 28.5037 7.06076H32.355C32.8477 7.06076 33.2473 7.46134 33.2473 7.95554V11.9228C33.2473 12.4168 32.848 12.8173 32.3555 12.8176L29.992 12.8187C27.4396 12.8187 26.9454 14.0349 26.9454 15.8198V19.7555H32.5539C33.0883 19.7555 33.5029 20.2234 33.4399 20.7556L32.8838 25.4606C32.8306 25.9108 32.4498 26.25 31.9978 26.25H26.9704L26.9454 40.8462H35.6773C38.7087 40.8462 41.1661 38.3819 41.1661 35.3422V5.5041C41.166 2.46423 38.7086 0 35.6771 0Z" fill="white"/>
</svg>
