<svg width="30" height="30" viewBox="0 0 30 30" fill="none" xmlns="http://www.w3.org/2000/svg">
<path fill-rule="evenodd" clip-rule="evenodd" d="M28.9655 12.5436C28.9299 12.2763 28.719 12.0684 28.4517 12.0328L25.0716 11.5902C24.8399 10.7645 24.5102 9.96853 24.0884 9.21708L26.1676 6.51129C26.3309 6.29744 26.3339 6.00042 26.1706 5.78657C25.3567 4.71138 24.4003 3.755 23.3281 2.94415C23.1142 2.78079 22.8172 2.78079 22.6033 2.94712L19.8975 5.02622C19.146 4.60446 18.35 4.2718 17.5213 4.04013L17.0787 0.654173C17.0431 0.386861 16.8352 0.175981 16.5679 0.140339C15.2105 -0.0467797 13.9036 -0.0467797 12.5492 0.140339C12.2818 0.175981 12.0739 0.386861 12.0383 0.654173L11.5957 4.03419C10.767 4.26586 9.96804 4.59852 9.21657 5.02028L6.51071 2.94118C6.29685 2.77782 5.99983 2.77485 5.78598 2.93821C5.29886 3.30651 4.82363 3.71639 4.37215 4.15597L4.15236 4.37576C3.71871 4.81831 3.31179 5.29056 2.94348 5.77766C2.78012 5.99151 2.78309 6.28853 2.94645 6.50238L5.0256 9.20817C4.60086 9.96259 4.27117 10.7616 4.03652 11.5902L0.650477 12.0328C0.383158 12.0684 0.172272 12.2763 0.13663 12.5436C0.0564341 13.1317 0.00891064 13.7376 0 14.3495V14.7653C0.00891064 15.3682 0.0534639 15.9712 0.13663 16.5622C0.172272 16.8296 0.383158 17.0375 0.650477 17.0731L4.03058 17.5157C4.26523 18.3473 4.59492 19.1433 5.01966 19.8977L2.94051 22.6035C2.77715 22.8174 2.77418 23.1144 2.93754 23.3282C3.30585 23.8153 3.71277 24.2876 4.15236 24.7331L4.37215 24.9559C4.81769 25.3925 5.29292 25.8023 5.78004 26.1706C5.99389 26.334 6.29091 26.331 6.50477 26.1677L9.21063 24.0886C9.96507 24.5103 10.7611 24.843 11.5898 25.0747L12.0353 28.4547C12.0709 28.722 12.2789 28.9329 12.5462 28.9685C13.2234 29.0606 13.8976 29.1081 14.5511 29.1081C15.2075 29.1081 15.8877 29.0606 16.5679 28.9655C16.8352 28.9299 17.0431 28.7161 17.0787 28.4517L17.5213 25.0687C18.35 24.8341 19.146 24.5044 19.8975 24.0826L22.6033 26.1617C22.8172 26.3251 23.1142 26.3281 23.3281 26.1647C24.4033 25.3509 25.3597 24.3945 26.1706 23.3223C26.3339 23.1084 26.3309 22.8114 26.1676 22.5976L24.0884 19.8918C24.5102 19.1403 24.8399 18.3443 25.0716 17.5186L28.4517 17.0761C28.719 17.0404 28.9299 16.8325 28.9655 16.5652C29.0576 15.888 29.1081 15.2108 29.1081 14.5544C29.1081 13.901 29.0606 13.2208 28.9655 12.5436ZM9 14.5C9 11.4668 11.4668 9 14.5 9C17.5332 9 20 11.4696 20 14.5C20 17.5304 17.5332 19.9972 14.5 20C11.4668 20 9 17.5332 9 14.5Z" fill="white"/>
</svg>
