<svg width="42" height="42" viewBox="0 0 42 42" fill="none" xmlns="http://www.w3.org/2000/svg">
<path d="M37.2589 0H4.47107C2.00267 0 0 2.00267 0 4.47107V37.2589C0 39.7273 2.00267 41.73 4.47107 41.73H37.2589C39.7273 41.73 41.73 39.7273 41.73 37.2589V4.47107C41.73 2.00267 39.7273 0 37.2589 0ZM25.8298 35.7406C25.0473 35.8803 24.7586 35.396 24.7586 34.9954C24.7586 34.4925 24.7772 31.9216 24.7772 29.8444C24.7772 28.3913 24.2928 27.4691 23.7246 26.9848C27.1711 26.6029 30.8038 26.1278 30.8038 20.1757C30.8038 18.4804 30.1984 17.6328 29.211 16.543C29.3694 16.1424 29.9003 14.4937 29.0526 12.3513C27.7579 11.9508 24.7958 14.0187 24.7958 14.0187C23.5663 13.674 22.2343 13.497 20.9209 13.497C19.6075 13.497 18.2755 13.674 17.046 14.0187C17.046 14.0187 14.0839 11.9508 12.7891 12.3513C11.9415 14.4844 12.4631 16.1331 12.6308 16.543C11.6434 17.6328 11.1777 18.4804 11.1777 20.1757C11.1777 26.0999 14.6521 26.6029 18.0985 26.9848C17.6514 27.3853 17.2509 28.0746 17.1112 29.062C16.2263 29.4625 13.9628 30.1518 12.6121 27.7672C11.7645 26.2955 10.2369 26.1744 10.2369 26.1744C8.7279 26.1558 10.1344 27.1245 10.1344 27.1245C11.1404 27.5902 11.8483 29.3787 11.8483 29.3787C12.7519 32.1451 17.0739 31.2137 17.0739 31.2137C17.0739 32.5084 17.0925 34.6135 17.0925 34.9954C17.0925 35.396 16.8131 35.8803 16.0213 35.7406C9.87362 33.6821 5.57021 27.8324 5.57021 20.9954C5.57021 12.4445 12.1092 5.95211 20.6601 5.95211C29.211 5.95211 36.1412 12.4445 36.1412 20.9954C36.1505 27.8324 31.9775 33.6914 25.8298 35.7406ZM16.692 30.0493C16.515 30.0866 16.3474 30.0121 16.3287 29.891C16.3101 29.7513 16.4312 29.6302 16.6082 29.5929C16.7851 29.5743 16.9528 29.6488 16.9714 29.7699C16.9994 29.891 16.8783 30.0121 16.692 30.0493ZM15.8071 29.9655C15.8071 30.0866 15.6674 30.189 15.4811 30.189C15.2762 30.2077 15.1364 30.1052 15.1364 29.9655C15.1364 29.8444 15.2762 29.7419 15.4625 29.7419C15.6394 29.7233 15.8071 29.8258 15.8071 29.9655ZM14.531 29.863C14.4937 29.9841 14.3074 30.04 14.1491 29.9841C13.9721 29.9469 13.851 29.8071 13.8883 29.6861C13.9255 29.565 14.1118 29.5091 14.2702 29.5463C14.4565 29.6022 14.5776 29.7419 14.531 29.863ZM13.3853 29.36C13.3014 29.4625 13.1245 29.4439 12.9847 29.3041C12.845 29.1831 12.8078 29.0061 12.9009 28.9222C12.9847 28.8198 13.1617 28.8384 13.3014 28.9781C13.4225 29.0992 13.4691 29.2855 13.3853 29.36ZM12.5376 28.5124C12.4538 28.5683 12.2954 28.5124 12.193 28.3727C12.0905 28.233 12.0905 28.0746 12.193 28.0094C12.2954 27.9256 12.4538 27.9908 12.5376 28.1305C12.6401 28.2702 12.6401 28.4379 12.5376 28.5124ZM11.9322 27.6089C11.8483 27.6927 11.7086 27.6461 11.6062 27.553C11.5037 27.4319 11.4851 27.2922 11.5689 27.227C11.6527 27.1431 11.7924 27.1897 11.8949 27.2828C11.9974 27.4039 12.016 27.5437 11.9322 27.6089ZM11.3081 26.9196C11.2708 27.0034 11.1497 27.022 11.0473 26.9568C10.9262 26.9009 10.8703 26.7985 10.9076 26.7146C10.9448 26.6588 11.0473 26.6308 11.1684 26.6774C11.2895 26.7426 11.3453 26.8451 11.3081 26.9196Z" fill="white"/>
</svg>
