<svg width="30" height="30" viewBox="0 0 30 30" fill="none" xmlns="http://www.w3.org/2000/svg">
<path d="M14.554 10.9348C12.5582 10.9348 10.9351 12.5579 10.9351 14.5537C10.9351 16.5495 12.5582 18.1725 14.554 18.1725C16.5498 18.1707 18.173 16.5476 18.173 14.5537C18.173 12.5598 16.5498 10.9348 14.554 10.9348ZM14.554 17.4216C12.9719 17.4216 11.6861 16.1339 11.6861 14.5537C11.6861 12.9716 12.9719 11.6858 14.554 11.6858C16.1361 11.6858 17.422 12.9716 17.422 14.5537C17.422 16.1339 16.1361 17.4216 14.554 17.4216Z" fill="white"/>
<path d="M28.9655 12.5436C28.9299 12.2763 28.719 12.0684 28.4517 12.0328L25.0716 11.5902C24.8399 10.7645 24.5102 9.96853 24.0884 9.21708L26.1676 6.51129C26.3309 6.29744 26.3339 6.00042 26.1706 5.78657C25.3567 4.71138 24.4003 3.755 23.3281 2.94415C23.1142 2.78079 22.8172 2.78079 22.6033 2.94712L19.8975 5.02622C19.146 4.60446 18.35 4.2718 17.5213 4.04013L17.0787 0.654173C17.0431 0.386861 16.8352 0.175981 16.5679 0.140339C15.2105 -0.0467797 13.9036 -0.0467797 12.5492 0.140339C12.2818 0.175981 12.0739 0.386861 12.0383 0.654173L11.5957 4.03419C10.767 4.26586 9.96804 4.59852 9.21657 5.02028L6.51071 2.94118C6.29685 2.77782 5.99983 2.77485 5.78598 2.93821C5.29886 3.30651 4.82363 3.71639 4.37215 4.15597L4.15236 4.37576C3.71871 4.81831 3.31179 5.29056 2.94348 5.77766C2.78012 5.99151 2.78309 6.28853 2.94645 6.50238L5.0256 9.20817C4.60086 9.96259 4.27117 10.7616 4.03652 11.5902L0.650477 12.0328C0.383158 12.0684 0.172272 12.2763 0.13663 12.5436C0.0564341 13.1317 0.00891064 13.7376 0 14.3495V14.7653C0.00891064 15.3682 0.0534639 15.9712 0.13663 16.5622C0.172272 16.8296 0.383158 17.0375 0.650477 17.0731L4.03058 17.5157C4.26523 18.3473 4.59492 19.1433 5.01966 19.8977L2.94051 22.6035C2.77715 22.8174 2.77418 23.1144 2.93754 23.3282C3.30585 23.8153 3.71277 24.2876 4.15236 24.7331L4.37215 24.9559C4.81769 25.3925 5.29292 25.8023 5.78004 26.1706C5.99389 26.334 6.29091 26.331 6.50477 26.1677L9.21063 24.0886C9.96507 24.5103 10.7611 24.843 11.5898 25.0747L12.0353 28.4547C12.0709 28.722 12.2789 28.9329 12.5462 28.9685C13.2234 29.0606 13.8976 29.1081 14.5511 29.1081C15.2075 29.1081 15.8877 29.0606 16.5679 28.9655C16.8352 28.9299 17.0431 28.7161 17.0787 28.4517L17.5213 25.0687C18.35 24.8341 19.146 24.5044 19.8975 24.0826L22.6033 26.1617C22.8172 26.3251 23.1142 26.3281 23.3281 26.1647C24.4033 25.3509 25.3597 24.3945 26.1706 23.3223C26.3339 23.1084 26.3309 22.8114 26.1676 22.5976L24.0884 19.8918C24.5102 19.1403 24.8399 18.3443 25.0716 17.5186L28.4517 17.0761C28.719 17.0404 28.9299 16.8325 28.9655 16.5652C29.0576 15.888 29.1081 15.2108 29.1081 14.5544C29.1081 13.901 29.0606 13.2208 28.9655 12.5436ZM27.8368 15.9474L24.5161 16.3811C24.2696 16.4137 24.0706 16.5949 24.0112 16.8355C23.7736 17.8186 23.3875 18.7572 22.8558 19.6245C22.7251 19.8353 22.74 20.1056 22.8914 20.3016L24.9349 22.9599C24.3468 23.6846 23.6875 24.344 22.9627 24.9321L20.3074 22.8916C20.1113 22.7401 19.841 22.7253 19.6301 22.856C18.7628 23.3876 17.8243 23.7767 16.8411 24.0143C16.6005 24.0737 16.4193 24.2727 16.3896 24.5192L15.956 27.8399C15.0115 27.9408 14.1085 27.9408 13.167 27.8399L12.7333 24.5192C12.7006 24.2727 12.5195 24.0737 12.2789 24.0143C11.2928 23.7767 10.3542 23.3876 9.48389 22.856C9.27301 22.7282 9.00272 22.7401 8.80668 22.8916L6.14834 24.9351C5.82756 24.6737 5.51272 24.3945 5.21867 24.1064L5.00778 23.8955C4.7167 23.5985 4.4375 23.2866 4.17909 22.9659L6.21963 20.3106C6.37111 20.1145 6.38596 19.8442 6.25527 19.6334C5.7236 18.7661 5.33153 17.8246 5.09392 16.8385C5.03451 16.5979 4.83551 16.4167 4.58898 16.384L1.26828 15.9474C1.2267 15.5524 1.20294 15.1514 1.197 14.7564V14.3584C1.20294 13.9574 1.2267 13.5565 1.26828 13.1585L4.58898 12.7248C4.83551 12.6921 5.03451 12.511 5.09392 12.2704C5.33153 11.2843 5.72063 10.3428 6.25527 9.47549C6.38596 9.26461 6.37111 8.99433 6.21963 8.7983L4.17909 6.14299C4.44047 5.82222 4.7167 5.51332 5.00481 5.21928L5.2157 5.0084C5.51569 4.71435 5.83053 4.43516 6.15131 4.17379L8.80965 6.21724C9.00569 6.36872 9.27598 6.38357 9.48686 6.25289C10.3542 5.72123 11.2957 5.33214 12.2818 5.09453C12.5224 5.0381 12.7036 4.83613 12.7363 4.58961L13.1699 1.26899C14.1115 1.17098 15.0174 1.17098 15.959 1.26899L16.3926 4.58961C16.4253 4.83613 16.6065 5.03513 16.8441 5.09453C17.8302 5.33214 18.7658 5.72123 19.6331 6.25289C19.844 6.38357 20.1143 6.36872 20.3103 6.21724L22.9657 4.17676C23.6904 4.76485 24.3498 5.42719 24.9379 6.14893L22.8944 8.80721C22.7429 9.00323 22.7281 9.27352 22.8588 9.4844C23.3875 10.3517 23.7766 11.2873 24.0142 12.2734C24.0736 12.5139 24.2726 12.6951 24.5191 12.7278L27.8339 13.1585C27.8844 13.6307 27.9081 14.097 27.9081 14.5544C27.9081 15.0089 27.8873 15.4781 27.8368 15.9474Z" fill="white"/>
</svg>
