<svg width="24" height="25" viewBox="0 0 24 25" fill="none" xmlns="http://www.w3.org/2000/svg">
<path d="M20.8125 3H3.1875C2.87684 3 2.625 3.25184 2.625 3.5625V21.1875C2.625 21.4982 2.87684 21.75 3.1875 21.75H20.8125C21.1232 21.75 21.375 21.4982 21.375 21.1875V3.5625C21.375 3.25184 21.1232 3 20.8125 3Z" fill="#F7DF1E"/>
<path d="M12.9722 13.3643H13.9805V16.5361C13.9805 16.9508 13.944 17.2699 13.8711 17.4932C13.7731 17.7848 13.5954 18.0195 13.3379 18.1973C13.0804 18.3727 12.7409 18.4604 12.3193 18.4604C11.8249 18.4604 11.4443 18.3226 11.1777 18.0469C10.9111 17.7689 10.7767 17.3621 10.7744 16.8267L11.728 16.7173C11.7394 17.0044 11.7816 17.2072 11.8545 17.3257C11.9639 17.5057 12.1302 17.5957 12.3535 17.5957C12.5791 17.5957 12.7386 17.5319 12.832 17.4043C12.9255 17.2744 12.9722 17.0067 12.9722 16.6011V13.3643Z" fill="black"/>
<path d="M14.8042 16.7446L15.7886 16.6489C15.8478 16.9793 15.9674 17.222 16.1475 17.377C16.3298 17.5319 16.5747 17.6094 16.8823 17.6094C17.2082 17.6094 17.4531 17.541 17.6172 17.4043C17.7835 17.2653 17.8667 17.1035 17.8667 16.9189C17.8667 16.8005 17.8314 16.7002 17.7607 16.6182C17.6924 16.5339 17.5716 16.4609 17.3984 16.3994C17.2799 16.3584 17.0099 16.2855 16.5884 16.1807C16.0461 16.0462 15.6655 15.881 15.4468 15.6851C15.1392 15.4093 14.9854 15.0732 14.9854 14.6768C14.9854 14.4215 15.0571 14.1834 15.2007 13.9624C15.3465 13.7391 15.555 13.5693 15.8262 13.4531C16.0996 13.3369 16.4289 13.2788 16.814 13.2788C17.4429 13.2788 17.9157 13.4167 18.2324 13.6924C18.5514 13.9681 18.7189 14.3361 18.7349 14.7964L17.7231 14.8408C17.6799 14.5833 17.5864 14.3988 17.4429 14.2871C17.3016 14.1732 17.0885 14.1162 16.8037 14.1162C16.5098 14.1162 16.2796 14.1766 16.1133 14.2974C16.0062 14.3748 15.9526 14.4785 15.9526 14.6084C15.9526 14.7269 16.0028 14.8283 16.103 14.9126C16.2306 15.0197 16.5405 15.1313 17.0327 15.2476C17.5249 15.3638 17.8883 15.4845 18.123 15.6099C18.36 15.7329 18.5446 15.9027 18.6768 16.1191C18.8112 16.3333 18.8784 16.5988 18.8784 16.9155C18.8784 17.2026 18.7987 17.4715 18.6392 17.7222C18.4797 17.9728 18.2541 18.1597 17.9624 18.2827C17.6707 18.4035 17.3073 18.4639 16.8721 18.4639C16.2386 18.4639 15.7521 18.318 15.4126 18.0264C15.0731 17.7324 14.8703 17.3052 14.8042 16.7446Z" fill="black"/>
</svg>
