<svg width="172" height="41" viewBox="0 0 172 41" fill="none" xmlns="http://www.w3.org/2000/svg">
<path d="M165.677 0H135.922C132.891 0 130.433 2.46423 130.433 5.5041V35.3419C130.433 38.3817 132.891 40.846 135.922 40.846H150.597L150.622 26.2498H146.841C146.349 26.2498 145.95 25.8513 145.948 25.3585L145.93 20.6536C145.928 20.1581 146.328 19.7554 146.822 19.7554H150.597V15.2092C150.597 9.93346 153.81 7.06076 158.504 7.06076H162.355C162.848 7.06076 163.247 7.46134 163.247 7.95554V11.9228C163.247 12.4168 162.848 12.8173 162.355 12.8176L159.992 12.8187C157.44 12.8187 156.945 14.0349 156.945 15.8198V19.7555H162.554C163.088 19.7555 163.503 20.2234 163.44 20.7556L162.884 25.4606C162.831 25.9108 162.45 26.25 161.998 26.25H156.97L156.945 40.8462H165.677C168.709 40.8462 171.166 38.3819 171.166 35.3422V5.5041C171.166 2.46423 168.709 0 165.677 0Z" fill="white"/>
<g clip-path="url(#clip0)">
<path d="M32.8869 0H9.12594C4.43994 0 0.639893 3.81061 0.639893 8.50961V32.3365C0.639893 37.0355 4.43994 40.8462 9.12594 40.8462H32.8869C37.5745 40.8462 41.3729 37.0355 41.3729 32.3365V8.50961C41.3729 3.81061 37.5745 0 32.8869 0ZM14.2176 32.3365H9.12594V13.6154H14.2176V32.3365ZM11.6717 11.4573C10.0322 11.4573 8.70163 10.1128 8.70163 8.45515C8.70163 6.79748 10.0322 5.45296 11.6717 5.45296C13.3113 5.45296 14.6419 6.79748 14.6419 8.45515C14.6419 10.1128 13.3129 11.4573 11.6717 11.4573ZM34.5841 32.3365H29.4924V22.799C29.4924 17.0669 22.7036 17.5009 22.7036 22.799V32.3365H17.612V13.6154H22.7036V16.6193C25.0729 12.2181 34.5841 11.893 34.5841 20.8332V32.3365Z" fill="white"/>
</g>
<path d="M97.3266 0H72.4083C66.7067 0 62.0846 5.36734 62.0846 11.9883V28.8579C62.0846 35.4788 66.7067 40.8462 72.4083 40.8462H97.3266C103.028 40.8462 107.65 35.4788 107.65 28.8579V11.9883C107.65 5.36734 103.028 0 97.3266 0ZM93.7967 21.2438L80.2041 28.772C79.8419 28.9726 79.4235 28.6659 79.4235 28.2V12.6732C79.4235 12.2007 79.8529 11.8944 80.2158 12.108L93.8084 20.1067C94.2126 20.3444 94.2056 21.0175 93.7967 21.2438Z" fill="white"/>
<defs>
<clipPath id="clip0">
<rect x="0.639893" width="40.733" height="40.8462" fill="white"/>
</clipPath>
</defs>
</svg>
