<svg width="19" height="25" viewBox="0 0 19 25" fill="none" xmlns="http://www.w3.org/2000/svg">
<g clip-path="url(#clip0_16_509)">
<path d="M2.04521 9.14707L5.91094 19.735C3.20684 18.4248 1.34443 15.6521 1.34443 12.4453C1.34443 11.2685 1.5958 10.1563 2.04521 9.14707ZM14.9145 12.0378C14.9145 11.0361 14.5564 10.343 14.2479 9.80215C13.8366 9.13564 13.452 8.56816 13.452 7.90166C13.452 7.15518 14.0156 6.46201 14.8116 6.46201C14.8459 6.46201 14.8802 6.46582 14.9183 6.46963C13.4748 5.14805 11.5553 4.34063 9.44531 4.34063C6.61553 4.34063 4.12471 5.7917 2.67363 7.99307C2.86406 8.00068 3.04307 8.00449 3.19541 8.00449C4.04092 8.00449 5.35488 7.90166 5.35488 7.90166C5.79287 7.875 5.84238 8.51865 5.4082 8.56816C5.4082 8.56816 4.97021 8.61768 4.48271 8.64434L7.43437 17.4193L9.20918 12.1025L7.94853 8.64434C7.51055 8.61768 7.09922 8.56816 7.09922 8.56816C6.66123 8.5415 6.71455 7.875 7.14873 7.90166C7.14873 7.90166 8.48555 8.00449 9.28154 8.00449C10.1271 8.00449 11.441 7.90166 11.441 7.90166C11.879 7.875 11.9285 8.51865 11.4943 8.56816C11.4943 8.56816 11.0563 8.61768 10.5688 8.64434L13.4977 17.3546L14.3051 14.6543C14.6479 13.5346 14.9145 12.731 14.9145 12.0378ZM9.58623 13.1537L7.15635 20.2187C7.88379 20.4319 8.64932 20.55 9.44531 20.55C10.3898 20.55 11.2925 20.3862 12.1342 20.0892C12.1113 20.0549 12.0923 20.0168 12.0771 19.9787L9.58623 13.1537ZM16.556 8.55674C16.5902 8.81572 16.6093 9.08994 16.6093 9.39082C16.6093 10.2135 16.4569 11.1352 15.9923 12.293L13.5167 19.4493C15.9275 18.0439 17.5462 15.4351 17.5462 12.4453C17.5462 11.0361 17.1882 9.71074 16.556 8.55674ZM18.8906 12.4453C18.8906 17.6555 14.6517 21.8906 9.44531 21.8906C4.23516 21.8906 0 17.6517 0 12.4453C0 7.23516 4.23516 3 9.44531 3C14.6517 3 18.8906 7.23516 18.8906 12.4453ZM18.4564 12.4453C18.4564 7.4751 14.4117 3.43418 9.44531 3.43418C4.4751 3.43418 0.43418 7.4751 0.43418 12.4453C0.43418 17.4155 4.47891 21.4564 9.44531 21.4564C14.4155 21.4564 18.4564 17.4155 18.4564 12.4453Z" fill="#21759B"/>
</g>
<defs>
<clipPath id="clip0_16_509">
<rect width="18.8906" height="24.8906" fill="white"/>
</clipPath>
</defs>
</svg>
