<svg width="513" height="355" viewBox="0 0 513 355" fill="none" xmlns="http://www.w3.org/2000/svg">
<path d="M510.106 0.289062H0.217773V326.844H510.106V0.289062Z" fill="#E6E6E6"/>
<path d="M229.382 44.1401H45.3054V233.289H229.382V44.1401Z" fill="white"/>
<path d="M482.305 47.8081H298.229V277.541H482.305V47.8081Z" fill="white"/>
<path d="M479.852 350.586C498.063 350.586 512.826 348.477 512.826 345.876C512.826 343.274 498.063 341.165 479.852 341.165C461.641 341.165 446.877 343.274 446.877 345.876C446.877 348.477 461.641 350.586 479.852 350.586Z" fill="#E6E6E6"/>
<path d="M150.18 350.692C168.391 350.692 183.154 348.583 183.154 345.982C183.154 343.38 168.391 341.271 150.18 341.271C131.969 341.271 117.206 343.38 117.206 345.982C117.206 348.583 131.969 350.692 150.18 350.692Z" fill="#E6E6E6"/>
<path d="M509.888 0H0V21.6619H509.888V0Z" fill="#6C63FF"/>
<path d="M16.0974 15.0896C18.3147 15.0896 20.1123 13.292 20.1123 11.0747C20.1123 8.85733 18.3147 7.05981 16.0974 7.05981C13.88 7.05981 12.0825 8.85733 12.0825 11.0747C12.0825 13.292 13.88 15.0896 16.0974 15.0896Z" fill="#E6E6E6"/>
<path d="M31.3369 15.0896C33.5542 15.0896 35.3518 13.292 35.3518 11.0747C35.3518 8.85733 33.5542 7.05981 31.3369 7.05981C29.1195 7.05981 27.322 8.85733 27.322 11.0747C27.322 13.292 29.1195 15.0896 31.3369 15.0896Z" fill="#E6E6E6"/>
<path d="M46.5764 15.0896C48.7937 15.0896 50.5913 13.292 50.5913 11.0747C50.5913 8.85733 48.7937 7.05981 46.5764 7.05981C44.359 7.05981 42.5615 8.85733 42.5615 11.0747C42.5615 13.292 44.359 15.0896 46.5764 15.0896Z" fill="#E6E6E6"/>
<path d="M441.721 109.43H440.606V78.8834C440.606 76.5616 440.149 74.2626 439.261 72.1176C438.372 69.9726 437.07 68.0236 435.428 66.3819C433.786 64.7402 431.837 63.4379 429.692 62.5494C427.547 61.6609 425.248 61.2036 422.927 61.2036H358.209C355.887 61.2036 353.588 61.6609 351.443 62.5494C349.298 63.4379 347.349 64.7402 345.707 66.3819C344.066 68.0236 342.763 69.9726 341.875 72.1176C340.986 74.2626 340.529 76.5616 340.529 78.8834V246.466C340.529 248.788 340.986 251.087 341.875 253.232C342.763 255.377 344.066 257.326 345.707 258.968C347.349 260.609 349.298 261.912 351.443 262.8C353.588 263.689 355.887 264.146 358.209 264.146H422.927C425.248 264.146 427.547 263.689 429.692 262.8C431.837 261.912 433.786 260.609 435.428 258.968C437.07 257.326 438.372 255.377 439.261 253.232C440.149 251.087 440.606 248.788 440.606 246.466V131.174H441.721V109.43Z" fill="#3F3D56"/>
<path d="M422.915 65.8032H414.467C414.856 66.7557 415.004 67.7891 414.899 68.8123C414.794 69.8356 414.439 70.8174 413.865 71.6711C413.292 72.5249 412.517 73.2244 411.609 73.7081C410.701 74.1919 409.688 74.4449 408.66 74.445H371.584C370.555 74.4449 369.542 74.1918 368.634 73.7081C367.727 73.2244 366.952 72.5248 366.378 71.6711C365.804 70.8173 365.449 69.8356 365.344 68.8123C365.239 67.7891 365.387 66.7557 365.776 65.8032H357.886C356.152 65.8032 354.435 66.1447 352.833 66.8082C351.231 67.4717 349.776 68.4443 348.55 69.6703C347.324 70.8963 346.351 72.3518 345.688 73.9536C345.024 75.5555 344.683 77.2724 344.683 79.0062V246.343C344.683 248.077 345.024 249.794 345.688 251.396C346.351 252.998 347.324 254.453 348.55 255.679C349.776 256.905 351.231 257.878 352.833 258.541C354.435 259.205 356.152 259.546 357.886 259.546H422.915C424.649 259.546 426.366 259.205 427.968 258.541C429.57 257.878 431.025 256.905 432.251 255.679C433.477 254.453 434.45 252.998 435.113 251.396C435.777 249.794 436.118 248.077 436.118 246.343V79.0062C436.118 75.5046 434.727 72.1463 432.251 69.6703C429.775 67.1942 426.417 65.8032 422.915 65.8032V65.8032Z" fill="white"/>
<path d="M201.442 163.622H73.4988V169.457H201.442V163.622Z" fill="#E6E6E6"/>
<path d="M201.442 182.464H73.4988V188.3H201.442V182.464Z" fill="#6C63FF"/>
<path d="M201.442 201.307H73.4988V207.142H201.442V201.307Z" fill="#E6E6E6"/>
<path d="M428.471 176.355H353.78V182.191H428.471V176.355Z" fill="#E6E6E6"/>
<path d="M428.471 194.473H353.78V200.309H428.471V194.473Z" fill="#E6E6E6"/>
<path d="M428.471 212.59H353.78V218.426H428.471V212.59Z" fill="#E6E6E6"/>
<path d="M436.28 303.211V290.763H423.831V303.211H436.28Z" fill="#3F3D56"/>
<path d="M416.224 303.211V290.763H403.776V303.211H416.224Z" fill="#6C63FF"/>
<path d="M396.168 303.211V290.763H383.72V303.211H396.168Z" fill="#3F3D56"/>
<path d="M376.112 303.211V290.763H363.664V303.211H376.112Z" fill="#3F3D56"/>
<path d="M356.056 303.211V290.763H343.608V303.211H356.056Z" fill="#3F3D56"/>
<path d="M411.148 100.728H369.653V142.223H411.148V100.728Z" fill="#6C63FF"/>
<path d="M120.978 199.725L120.441 200.799L118.83 192.742C118.83 192.742 116.681 184.149 120.978 184.149C125.275 184.149 124.201 192.742 124.201 192.742V198.651L120.978 199.725Z" fill="#A0616A"/>
<path d="M191.45 198.625L191.987 199.699L193.598 191.643C193.598 191.643 195.747 183.049 191.45 183.049C187.153 183.049 188.227 191.643 188.227 191.643V197.551L191.45 198.625Z" fill="#A0616A"/>
<path d="M144.611 260.127L138.166 299.873L141.388 338.544L148.907 335.322L147.833 306.318L155.353 283.222L156.964 310.615L153.742 339.081L163.41 340.156L170.392 281.611L169.855 261.738L144.611 260.127Z" fill="#2F2E41"/>
<path d="M144.611 333.711L140.851 339.619V352.82C140.851 353.201 140.986 353.568 141.233 353.858C141.479 354.147 141.821 354.34 142.196 354.401C144.039 354.703 147.248 354.918 148.371 353.047C149.982 350.361 148.908 344.453 148.908 344.453C148.908 344.453 151.056 340.156 149.982 336.933C148.908 333.711 147.833 333.174 147.833 333.174L144.611 333.711Z" fill="#2F2E41"/>
<path d="M160.724 339.082L161.798 340.693C161.798 340.693 163.41 342.304 162.335 343.379C161.547 344.214 160.828 345.112 160.187 346.064C160.187 346.064 154.279 347.675 154.279 345.527V338.545L160.724 339.082Z" fill="#2F2E41"/>
<path d="M158.788 216.412C162.721 216.412 165.908 213.225 165.908 209.293C165.908 205.36 162.721 202.173 158.788 202.173C154.856 202.173 151.669 205.36 151.669 209.293C151.669 213.225 154.856 216.412 158.788 216.412Z" fill="#A0616A"/>
<path d="M154.01 211.519L153.473 221.724L163.141 222.261L162.604 212.056L154.01 211.519Z" fill="#A0616A"/>
<path d="M164.484 222.53L162.959 218.805C162.959 218.805 155.89 216.084 153.742 218.77L152.667 221.992L144.074 219.844L139.24 230.586L143.537 261.201C143.537 261.201 154.816 275.703 169.855 261.738L174.152 232.735L170.929 221.455L164.484 222.53Z" fill="#575A89"/>
<path d="M169.855 223.604L170.929 221.455L181.672 215.01L188.227 195.604L193.3 197.778L187.579 220.918L172.003 235.42L169.855 223.604Z" fill="#575A89"/>
<path d="M145.148 220.918L144.074 219.844L132.794 212.862L124.738 196.749L118.293 198.897L125.275 218.77L142.463 232.735L145.148 220.918Z" fill="#575A89"/>
<path d="M164.073 198.389L165.237 197.807L163.491 197.225V196.643C163.491 196.643 154.76 193.151 153.596 198.971C152.094 200.99 151.282 203.44 151.282 205.956C151.282 208.472 152.094 210.922 153.596 212.941V214.687L162.909 215.851L164.073 212.358C164.073 212.358 169.893 201.882 164.073 198.389Z" fill="#2F2E41"/>
<path d="M201.118 65.8813H73.5688V139.077H201.118V65.8813Z" fill="#E6E6E6"/>
<path d="M453.328 211.06L453.919 207.248C453.919 207.248 457.363 199.417 454.641 198.995C451.918 198.573 449.647 206.028 449.647 206.028L450.643 213.989L453.328 211.06Z" fill="#FFB8B8"/>
<path d="M481.206 232.669L456.869 227.781L454.041 210.055L446.878 209.502L447.228 232.419L468.373 243.505L481.206 232.669Z" fill="#575A89"/>
<path opacity="0.2" d="M481.206 232.669L456.869 227.781L454.041 210.055L446.878 209.502L447.228 232.419L468.373 243.505L481.206 232.669Z" fill="black"/>
<path d="M414.999 206.371H489.69V200.535H414.999V206.371Z" fill="#6C63FF"/>
<path d="M448.573 209.753L448.578 205.895C448.578 205.895 450.792 197.632 448.037 197.629C445.282 197.625 444.17 205.339 444.17 205.339L446.364 213.056L448.573 209.753Z" fill="#FFB8B8"/>
<path d="M480.251 220.801L483.59 219.987C484.865 219.988 486.123 219.707 487.275 219.162C488.427 218.618 489.443 217.824 490.251 216.838C491.058 215.853 491.637 214.7 491.944 213.463C492.251 212.226 492.28 210.937 492.027 209.688V209.688C492.029 208.213 491.74 206.751 491.177 205.387C490.614 204.023 489.788 202.784 488.746 201.739C487.704 200.694 486.467 199.865 485.104 199.299C483.742 198.732 482.281 198.44 480.805 198.438V198.438C479.33 198.436 477.868 198.725 476.504 199.288C475.14 199.851 473.901 200.677 472.856 201.719C471.811 202.761 470.982 203.999 470.416 205.361C469.849 206.724 469.557 208.184 469.555 209.66V209.66C469.123 211.163 469.094 212.753 469.469 214.271C469.845 215.789 470.613 217.182 471.696 218.31C472.779 219.438 474.139 220.262 475.641 220.699C477.142 221.136 478.732 221.171 480.251 220.801Z" fill="#2F2E41"/>
<path d="M460.612 276.446L463.331 306.207L468.253 335.419L476.519 335.43L475.453 306.773L471.088 272.051L460.612 276.446Z" fill="#2F2E41"/>
<path d="M469.357 333.768L463.843 337.067C463.843 337.067 455.024 338.158 456.674 340.915C458.324 343.673 477.613 342.044 477.614 340.942C477.616 339.84 477.072 333.777 475.97 333.776L469.357 333.768Z" fill="#2F2E41"/>
<path d="M485.012 273.875C485.012 273.875 484.857 278.13 480.991 284.738L481.517 305.128L501.323 330.501L494.152 336.554L469.94 308.971L463.919 275.899L471.644 268.194L485.012 273.875Z" fill="#2F2E41"/>
<path d="M499.67 330.499C499.67 330.499 506.281 331.61 505.176 334.364C504.07 337.118 501.299 349.788 494.137 348.126C494.137 348.126 490.831 348.122 491.936 345.919C492.6 344.594 493.337 343.307 494.145 342.065L494.154 334.901L499.67 330.499Z" fill="#2F2E41"/>
<path d="M476.673 221.36C481.238 221.36 484.939 217.66 484.939 213.094C484.939 208.529 481.238 204.829 476.673 204.829C472.108 204.829 468.407 208.529 468.407 213.094C468.407 217.66 472.108 221.36 476.673 221.36Z" fill="#FFB8B8"/>
<path d="M480.523 218.61L480.511 227.978L471.695 227.967L472.808 218.601L480.523 218.61Z" fill="#FFB8B8"/>
<path d="M469.494 224.658L472.166 224.001L480.516 224.672C480.516 224.672 484.918 229.086 484.366 230.187C483.814 231.288 481.024 258.287 481.024 258.287L485.96 277.58L468.324 278.66L459.509 277.547L461.206 242.832C461.206 242.832 457.36 233.459 462.323 230.71C465.126 229.24 467.574 227.174 469.494 224.658V224.658Z" fill="#575A89"/>
<path d="M479.411 226.875L454.615 225.741L449.126 208.652L441.961 209.193L445.79 231.792L468.374 239.535L479.411 226.875Z" fill="#575A89"/>
<path d="M492.629 207.005C495.574 207.005 497.962 204.617 497.962 201.672C497.962 198.726 495.574 196.339 492.629 196.339C489.684 196.339 487.296 198.726 487.296 201.672C487.296 204.617 489.684 207.005 492.629 207.005Z" fill="#2F2E41"/>
<path d="M487.708 198.805C487.709 198.016 487.885 197.237 488.223 196.524C488.561 195.811 489.053 195.183 489.664 194.683C490.274 194.184 490.988 193.826 491.754 193.636C492.519 193.445 493.317 193.428 494.091 193.583C493.408 193.261 492.665 193.087 491.911 193.073C491.156 193.059 490.407 193.206 489.714 193.503C489.02 193.801 488.397 194.242 487.887 194.798C487.377 195.354 486.99 196.012 486.753 196.728C486.516 197.444 486.433 198.203 486.511 198.954C486.589 199.704 486.826 200.43 487.205 201.082C487.585 201.735 488.098 202.299 488.712 202.738C489.326 203.177 490.026 203.481 490.766 203.629C489.851 203.198 489.078 202.516 488.536 201.661C487.995 200.807 487.707 199.816 487.708 198.805V198.805Z" fill="#2F2E41"/>
<path d="M483.133 201.829L475.943 200.506L470.414 203.971C469.055 204.823 467.968 206.047 467.283 207.498C466.599 208.949 466.344 210.565 466.551 212.156L472.088 210.753L473.328 207.643L474.805 210.064L480.796 220.539L486.862 217.24L490.727 211.184L483.133 201.829Z" fill="#2F2E41"/>
<path d="M73.9295 65.2529L73.2083 66.5098L200.757 139.705L201.478 138.449L73.9295 65.2529Z" fill="white"/>
<path d="M200.76 65.2578L73.2056 138.444L73.9267 139.701L201.481 66.5147L200.76 65.2578Z" fill="white"/>
<path d="M370.487 100.155L369.463 101.18L410.771 142.488L411.796 141.463L370.487 100.155Z" fill="white"/>
<path d="M410.771 100.155L369.463 141.463L370.487 142.488L411.796 101.18L410.771 100.155Z" fill="white"/>
</svg>
