<svg width="555" height="478" viewBox="0 0 555 478" fill="none" xmlns="http://www.w3.org/2000/svg">
<path d="M271.321 275.522C320.389 275.522 360.167 235.744 360.167 186.676C360.167 137.608 320.389 97.8301 271.321 97.8301C222.253 97.8301 182.476 137.608 182.476 186.676C182.476 235.744 222.253 275.522 271.321 275.522Z" fill="#6C63FF"/>
<path d="M282.94 260.486C233.573 260.486 193.41 220.324 193.41 170.957C193.41 121.59 233.573 81.4277 282.94 81.4277C332.306 81.4277 372.469 121.59 372.469 170.957C372.469 220.324 332.306 260.486 282.94 260.486ZM282.94 82.7946C265.503 82.7946 248.457 87.9652 233.959 97.6526C219.461 107.34 208.161 121.109 201.488 137.219C194.815 153.328 193.069 171.055 196.471 188.157C199.873 205.259 208.269 220.968 220.599 233.297C232.929 245.627 248.638 254.024 265.74 257.426C282.842 260.827 300.568 259.081 316.678 252.409C332.787 245.736 346.556 234.436 356.244 219.937C365.931 205.439 371.102 188.394 371.102 170.957C371.075 147.583 361.778 125.174 345.251 108.646C328.723 92.118 306.314 82.821 282.94 82.7946V82.7946Z" fill="#3F3D56"/>
<path d="M554.261 301.392H0V0H554.261V301.392ZM1.36686 300.026H552.894V1.36686H1.36686V300.026Z" fill="#3F3D56"/>
<path d="M140.103 23.92H18.4526V36.2218H140.103V23.92Z" fill="#F2F2F2"/>
<path d="M322.579 23.92H200.928V36.2218H322.579V23.92Z" fill="#F2F2F2"/>
<path d="M505.054 23.92H383.404V36.2218H505.054V23.92Z" fill="#F2F2F2"/>
<path d="M148.304 30.7543H25.2869V17.0857H148.304V30.7543ZM26.6537 29.3874H146.937V18.4526H26.6537V29.3874Z" fill="#3F3D56"/>
<path d="M330.78 30.7543H207.762V17.0857H330.78V30.7543ZM209.129 29.3874H329.413V18.4526H209.129V29.3874Z" fill="#3F3D56"/>
<path d="M513.255 30.7543H390.238V17.0857H513.255V30.7543ZM391.605 29.3874H511.888V18.4526H391.605V29.3874Z" fill="#3F3D56"/>
<path d="M554 467H80V468H554V467Z" fill="#2F2E41"/>
<path d="M268.929 330.438L311.985 247.059L323.603 253.894L274.397 333.855L268.929 330.438Z" fill="#3F3D56"/>
<path d="M243.984 348.549C243.984 348.549 251.92 354.784 252.821 341.443C252.936 339.324 253.49 337.253 254.448 335.36C255.407 333.466 256.748 331.793 258.388 330.447C261.981 327.576 267.152 325.612 273.372 329.413C278.907 332.796 280.153 337.701 279.848 342.073C279.577 345.206 278.55 348.226 276.856 350.874C275.162 353.523 272.851 355.722 270.122 357.283C263.952 360.945 254.213 363.701 243.984 354.7C243.984 354.7 237.833 347.865 243.984 348.549Z" fill="#6C63FF"/>
<path d="M320.116 151.066C329.275 151.066 336.7 143.641 336.7 134.482C336.7 125.323 329.275 117.898 320.116 117.898C310.957 117.898 303.532 125.323 303.532 134.482C303.532 143.641 310.957 151.066 320.116 151.066Z" fill="#FFB8B8"/>
<path d="M311.387 142.338C311.387 142.338 315.751 165.032 314.006 169.396C312.26 173.76 338.446 167.65 338.446 167.65C338.446 167.65 333.209 144.956 334.081 139.719C334.954 134.482 311.387 142.338 311.387 142.338Z" fill="#FFB8B8"/>
<path d="M282.583 220.894L284.329 244.461L292.993 281.473L295.676 291.596L300.04 275.884L295.676 240.097L294.194 223.986L282.583 220.894Z" fill="#FFB8B8"/>
<path d="M374.233 217.403V241.843C374.233 241.843 371.614 273.266 366.377 281.121C361.14 288.977 359.394 249.699 359.394 249.699L363.498 220.894L374.233 217.403Z" fill="#FFB8B8"/>
<path d="M296.549 293.341C296.549 293.341 292.185 298.578 295.676 351.822C299.167 405.066 293.93 443.472 305.277 443.472C305.277 443.472 301.786 454.819 311.387 455.692C320.989 456.565 325.353 457.437 326.226 454.819C327.099 452.2 328.844 439.98 326.226 439.98C326.226 439.98 326.226 443.472 327.972 429.506C329.717 415.541 329.717 349.204 334.082 340.475L348.047 372.771C348.047 372.771 348.047 387.609 350.666 394.592C353.284 401.575 357.649 441.726 357.649 441.726L356.776 447.836C356.776 447.836 377.724 451.327 378.597 447.836C379.47 444.345 379.47 439.108 378.597 437.362C377.724 435.616 377.724 435.616 379.47 432.125C381.216 428.633 381.216 426.015 380.343 423.396C379.47 420.778 379.47 364.042 379.47 364.042C379.47 364.042 377.724 295.087 367.25 291.595C356.776 288.104 296.549 293.341 296.549 293.341Z" fill="#2F2E41"/>
<path d="M307.896 448.709L300.913 460.929C300.913 460.929 290.002 457.001 292.185 467.039C310.951 468.348 324.044 466.602 324.044 466.602C324.044 466.602 328.408 468.348 329.281 465.73C330.154 463.111 327.099 453.946 324.48 453.946C321.862 453.946 307.896 448.709 307.896 448.709Z" fill="#2F2E41"/>
<path d="M358.521 445.217C358.521 445.217 351.539 460.929 354.157 461.802C356.776 462.674 380.343 466.166 382.088 467.039C383.834 467.912 392.563 468.784 393.436 463.547C394.308 458.31 389.071 456.565 389.071 456.565C389.071 456.565 379.47 454.819 376.851 446.09C374.233 437.362 358.521 445.217 358.521 445.217Z" fill="#2F2E41"/>
<path d="M340.191 165.032C340.191 165.032 316.624 160.667 311.387 165.032C306.15 169.396 284.329 178.125 284.329 182.489C284.329 186.853 295.676 229.623 295.676 229.623C295.676 229.623 289.566 294.214 295.676 295.96C301.786 297.705 312.26 292.468 324.48 298.578C336.7 304.688 371.614 293.341 371.614 293.341C371.614 293.341 358.521 237.478 362.013 227.004C365.504 216.53 368.123 180.743 368.123 180.743C368.123 180.743 353.284 165.032 340.191 165.032Z" fill="#8985A8"/>
<path d="M290.439 179.87L284.329 181.616C284.329 181.616 271.236 222.64 276.473 224.386C281.71 226.132 296.549 229.623 298.295 229.623C300.04 229.623 290.439 179.87 290.439 179.87Z" fill="#8985A8"/>
<path d="M354.157 175.506L368.123 180.743C368.123 180.743 386.453 214.784 382.089 219.149C377.724 223.513 358.522 227.877 358.522 227.877L354.157 175.506Z" fill="#8985A8"/>
<path d="M319.612 113.998C318.233 113.748 316.815 113.811 315.464 114.181C314.382 114.66 313.386 115.314 312.515 116.115C310.936 117.374 309.249 118.491 307.474 119.455C306.06 120.223 304.54 120.933 303.552 122.204C303.085 122.847 302.713 123.552 302.445 124.3C300.744 128.644 300.287 133.376 301.125 137.966C301.219 138.618 301.415 139.251 301.706 139.842C302.614 141.513 304.617 142.172 306.305 143.048C309.51 144.712 311.939 147.513 314.567 149.988C315.544 150.963 316.641 151.808 317.832 152.504C321.582 154.549 326.165 153.882 330.374 153.159C330.672 153.158 330.968 153.099 331.243 152.983C331.518 152.868 331.767 152.7 331.977 152.488C332.187 152.275 332.353 152.024 332.465 151.747C332.577 151.471 332.633 151.175 332.63 150.877L335.953 135.933C336.555 133.719 336.841 131.431 336.804 129.137C336.572 125.509 334.608 120.484 331.946 117.907C328.844 114.905 323.667 114.427 319.612 113.998Z" fill="#2F2E41"/>
<path d="M251.502 466.782C264.712 466.782 275.422 466.17 275.422 465.415C275.422 464.66 264.712 464.048 251.502 464.048C238.291 464.048 227.582 464.66 227.582 465.415C227.582 466.17 238.291 466.782 251.502 466.782Z" fill="#6C63FF"/>
<path d="M246.034 469.515C259.245 469.515 269.954 468.904 269.954 468.149C269.954 467.394 259.245 466.782 246.034 466.782C232.824 466.782 222.114 467.394 222.114 468.149C222.114 468.904 232.824 469.515 246.034 469.515Z" fill="#6C63FF"/>
<path d="M222.114 460.69C229.286 460.69 235.099 460.357 235.099 459.948C235.099 459.538 229.286 459.206 222.114 459.206C214.943 459.206 209.129 459.538 209.129 459.948C209.129 460.357 214.943 460.69 222.114 460.69Z" fill="#6C63FF"/>
<path d="M268.587 477.092C275.759 477.092 281.573 476.76 281.573 476.35C281.573 475.94 275.759 475.608 268.587 475.608C261.416 475.608 255.602 475.94 255.602 476.35C255.602 476.76 261.416 477.092 268.587 477.092Z" fill="#6C63FF"/>
</svg>
