<svg width="646" height="428" viewBox="0 0 646 428" fill="none" xmlns="http://www.w3.org/2000/svg">
<g clip-path="url(#clip0)">
<path opacity="0.1" d="M369.504 81.6149C329.78 80.2339 291.947 67.4119 255.819 53.3808C219.692 39.3497 183.89 23.8025 145.129 16.3696C120.191 11.5882 91.6749 10.9131 71.5796 24.2813C52.2454 37.1708 45.9971 59.359 42.6335 79.9699C40.1109 95.4741 38.6255 111.788 45.549 126.304C50.3549 136.383 58.8927 144.853 64.7973 154.508C85.3345 188.094 70.8185 229.512 48.5565 262.307C38.1222 277.694 26.0061 292.382 17.9471 308.746C9.88814 325.109 6.16247 343.885 13.2087 360.592C20.1997 377.164 36.8517 389.587 54.8908 398.334C91.5215 416.103 134.683 421.185 176.794 424.064C269.979 430.441 363.667 427.679 457.098 424.917C491.678 423.892 526.412 422.854 560.428 417.508C579.314 414.538 598.82 409.83 612.532 398.45C629.939 384.008 634.254 359.549 622.592 341.442C603.025 311.066 548.938 303.522 535.245 270.918C527.713 252.977 535.447 232.992 546.385 216.347C569.856 180.649 609.193 149.328 611.268 108.523C612.692 80.4916 593.781 52.4294 564.54 39.1656C533.888 25.2695 491.39 27.0126 468.79 50.0234C445.491 73.7155 404.576 82.8302 369.504 81.6149Z" fill="#6C63FF"/>
<g opacity="0.6">
<path opacity="0.6" d="M158.565 150.813C158.565 150.813 141.692 120.928 116.288 112.316C105.62 108.765 96.3899 101.852 89.9807 92.6139C86.9686 88.2027 84.3675 83.5245 82.2102 78.638" stroke="#535461" stroke-width="2" stroke-miterlimit="10"/>
<path opacity="0.6" d="M66.2027 73.114C69.0936 75.9251 82.5785 78.8283 82.5785 78.8283C82.5785 78.8283 79.2702 65.4417 76.3731 62.6306C75.6885 61.9446 74.8743 61.4017 73.9778 61.0335C73.0813 60.6653 72.1206 60.4792 71.1514 60.486C70.1823 60.4929 69.2243 60.6925 68.3331 61.0733C67.4419 61.4541 66.6354 62.0084 65.9606 62.704C65.2857 63.3996 64.7561 64.2225 64.4025 65.1249C64.0489 66.0272 63.8784 66.9909 63.9009 67.9597C63.9234 68.9286 64.1386 69.8833 64.5337 70.7682C64.9289 71.6531 65.4963 72.4505 66.2027 73.114V73.114Z" fill="#6C63FF"/>
<path opacity="0.6" d="M73.8259 97.3584C77.7848 98.1441 90.6805 93.2522 90.6805 93.2522C90.6805 93.2522 80.6267 83.8122 76.6678 83.0265C75.7267 82.8399 74.7581 82.8405 73.8173 83.0283C72.8765 83.216 71.9819 83.5872 71.1845 84.1207C70.3871 84.6541 69.7027 85.3394 69.1702 86.1374C68.6376 86.9354 68.2675 87.8305 68.0809 88.7716C67.8943 89.7126 67.8949 90.6812 68.0826 91.622C68.2704 92.5628 68.6416 93.4575 69.175 94.2548C69.7085 95.0522 70.3938 95.7367 71.1918 96.2692C71.9898 96.8017 72.8849 97.1718 73.8259 97.3584V97.3584Z" fill="#6C63FF"/>
<path opacity="0.6" d="M101.6 123.561C105.411 122.241 114.078 111.512 114.078 111.512C114.078 111.512 100.63 108.443 96.8182 109.757C94.9877 110.391 93.484 111.726 92.6379 113.469C91.7919 115.212 91.6728 117.219 92.3069 119.05C92.9409 120.88 94.2762 122.384 96.0189 123.23C97.7616 124.076 99.769 124.195 101.6 123.561V123.561Z" fill="#6C63FF"/>
<path opacity="0.6" d="M127.078 138.672C131.061 138.015 141.416 128.901 141.416 128.901C141.416 128.901 128.686 123.598 124.702 124.254C122.79 124.569 121.082 125.631 119.953 127.206C118.824 128.78 118.366 130.739 118.681 132.651C118.996 134.563 120.058 136.271 121.632 137.401C123.207 138.53 125.166 138.987 127.078 138.672V138.672Z" fill="#6C63FF"/>
<path opacity="0.6" d="M101.925 82.7749C101.925 86.8136 94.6271 98.5124 94.6271 98.5124C94.6271 98.5124 87.3169 86.8505 87.3169 82.7811C87.3169 80.8439 88.0864 78.9861 89.4562 77.6164C90.826 76.2466 92.6838 75.4771 94.6209 75.4771C96.5581 75.4771 98.4159 76.2466 99.7857 77.6164C101.155 78.9861 101.925 80.8439 101.925 82.7811V82.7749Z" fill="#6C63FF"/>
<path opacity="0.6" d="M131.503 100.82C130.276 104.675 119.841 113.654 119.841 113.654C119.841 113.654 116.367 100.305 117.57 96.4684C117.857 95.5528 118.321 94.7026 118.936 93.9663C119.551 93.23 120.305 92.622 121.156 92.1772C122.006 91.7323 122.935 91.4593 123.891 91.3736C124.846 91.2879 125.809 91.3913 126.725 91.6779C127.641 91.9644 128.491 92.4285 129.227 93.0436C129.963 93.6588 130.571 94.4129 131.016 95.263C131.461 96.1131 131.734 97.0425 131.82 97.9981C131.905 98.9537 131.802 99.9168 131.516 100.832L131.503 100.82Z" fill="#6C63FF"/>
<path opacity="0.6" d="M157.841 122.303C157.307 126.305 148.505 136.929 148.505 136.929C148.505 136.929 142.821 124.359 143.361 120.357C143.619 118.437 144.63 116.698 146.17 115.523C147.71 114.347 149.654 113.832 151.574 114.09C153.494 114.348 155.233 115.358 156.408 116.899C157.583 118.439 158.099 120.383 157.841 122.303Z" fill="#6C63FF"/>
<path opacity="0.25" d="M66.2027 73.114C69.0936 75.9251 82.5785 78.8283 82.5785 78.8283C82.5785 78.8283 79.2702 65.4417 76.3731 62.6306C75.6885 61.9446 74.8743 61.4017 73.9778 61.0335C73.0813 60.6653 72.1206 60.4792 71.1514 60.486C70.1823 60.4929 69.2243 60.6925 68.3331 61.0733C67.4419 61.4541 66.6354 62.0084 65.9606 62.704C65.2857 63.3996 64.7561 64.2225 64.4025 65.1249C64.0489 66.0272 63.8784 66.9909 63.9009 67.9597C63.9234 68.9286 64.1386 69.8833 64.5337 70.7682C64.9289 71.6531 65.4963 72.4505 66.2027 73.114V73.114Z" fill="black"/>
<path opacity="0.25" d="M73.8259 97.3584C77.7848 98.1441 90.6805 93.2522 90.6805 93.2522C90.6805 93.2522 80.6267 83.8122 76.6678 83.0265C75.7267 82.8399 74.7581 82.8405 73.8173 83.0283C72.8765 83.216 71.9819 83.5872 71.1845 84.1207C70.3871 84.6541 69.7027 85.3394 69.1702 86.1374C68.6376 86.9354 68.2675 87.8305 68.0809 88.7716C67.8943 89.7126 67.8949 90.6812 68.0826 91.622C68.2704 92.5628 68.6416 93.4575 69.175 94.2548C69.7085 95.0522 70.3938 95.7367 71.1918 96.2692C71.9898 96.8017 72.8849 97.1718 73.8259 97.3584V97.3584Z" fill="black"/>
<path opacity="0.25" d="M101.6 123.561C105.411 122.241 114.078 111.512 114.078 111.512C114.078 111.512 100.63 108.443 96.8182 109.757C94.9877 110.391 93.484 111.726 92.6379 113.469C91.7919 115.212 91.6728 117.219 92.3069 119.05C92.9409 120.88 94.2762 122.384 96.0189 123.23C97.7616 124.076 99.769 124.195 101.6 123.561V123.561Z" fill="black"/>
<path opacity="0.25" d="M127.078 138.672C131.061 138.015 141.416 128.901 141.416 128.901C141.416 128.901 128.686 123.598 124.702 124.254C122.79 124.569 121.082 125.631 119.953 127.206C118.824 128.78 118.366 130.739 118.681 132.651C118.996 134.563 120.058 136.271 121.632 137.401C123.207 138.53 125.166 138.987 127.078 138.672V138.672Z" fill="black"/>
<path opacity="0.25" d="M101.925 82.7749C101.925 86.8136 94.6271 98.5124 94.6271 98.5124C94.6271 98.5124 87.3169 86.8505 87.3169 82.7811C87.3169 80.8439 88.0864 78.9861 89.4562 77.6164C90.826 76.2466 92.6838 75.4771 94.6209 75.4771C96.5581 75.4771 98.4159 76.2466 99.7857 77.6164C101.155 78.9861 101.925 80.8439 101.925 82.7811V82.7749Z" fill="black"/>
<path opacity="0.25" d="M131.503 100.82C130.276 104.675 119.841 113.654 119.841 113.654C119.841 113.654 116.367 100.305 117.57 96.4684C117.857 95.5528 118.321 94.7026 118.936 93.9663C119.551 93.23 120.305 92.622 121.156 92.1772C122.006 91.7323 122.935 91.4593 123.891 91.3736C124.846 91.2879 125.809 91.3913 126.725 91.6779C127.641 91.9644 128.491 92.4285 129.227 93.0436C129.963 93.6588 130.571 94.4129 131.016 95.263C131.461 96.1131 131.734 97.0425 131.82 97.9981C131.905 98.9537 131.802 99.9168 131.516 100.832L131.503 100.82Z" fill="black"/>
<path opacity="0.25" d="M157.841 122.303C157.307 126.305 148.505 136.929 148.505 136.929C148.505 136.929 142.821 124.359 143.361 120.357C143.619 118.437 144.63 116.698 146.17 115.523C147.71 114.347 149.654 113.832 151.574 114.09C153.494 114.348 155.233 115.358 156.408 116.899C157.583 118.439 158.099 120.383 157.841 122.303Z" fill="black"/>
<path opacity="0.6" d="M157.595 150.224C157.595 150.224 154.281 116.06 134.542 97.8924C126.217 90.3235 120.57 80.2597 118.448 69.2103C117.475 63.9569 116.986 58.6253 116.987 53.2826" stroke="#535461" stroke-width="2" stroke-miterlimit="10"/>
<path opacity="0.6" d="M104.638 41.7557C106.148 45.4998 117.294 53.6202 117.294 53.6202C117.294 53.6202 119.7 40.0371 118.19 36.293C117.832 35.4032 117.301 34.5927 116.629 33.9078C115.957 33.223 115.157 32.6771 114.274 32.3016C113.391 31.926 112.443 31.7279 111.484 31.7188C110.524 31.7096 109.573 31.8895 108.683 32.2482C107.793 32.6069 106.982 33.1373 106.298 33.8093C105.613 34.4812 105.067 35.2814 104.691 36.1643C104.316 37.0471 104.118 37.9953 104.108 38.9547C104.099 39.9141 104.279 40.8659 104.638 41.7557V41.7557Z" fill="#6C63FF"/>
<path opacity="0.6" d="M101.796 67.0007C105.092 69.3208 118.866 70.0696 118.866 70.0696C118.866 70.0696 113.501 57.3643 110.199 55.0442C109.414 54.4924 108.529 54.1007 107.592 53.8912C106.656 53.6818 105.688 53.6587 104.743 53.8235C103.798 53.9882 102.895 54.3374 102.085 54.8512C101.275 55.365 100.574 56.0333 100.022 56.818C99.4706 57.6027 99.0788 58.4884 98.8694 59.4244C98.6599 60.3605 98.6369 61.3287 98.8016 62.2737C98.9663 63.2186 99.3156 64.1219 99.8294 64.9319C100.343 65.7419 101.011 66.4428 101.796 66.9946V67.0007Z" fill="#6C63FF"/>
<path opacity="0.6" d="M116.558 102.226C120.578 102.563 132.853 96.2597 132.853 96.2597C132.853 96.2597 121.805 88.0044 117.785 87.6668C115.854 87.504 113.938 88.1148 112.458 89.3649C110.978 90.6149 110.055 92.4018 109.892 94.3325C109.729 96.2631 110.34 98.1793 111.59 99.6596C112.84 101.14 114.627 102.063 116.558 102.226V102.226Z" fill="#6C63FF"/>
<path opacity="0.6" d="M133.731 126.36C137.641 127.373 150.801 123.236 150.801 123.236C150.801 123.236 141.305 113.231 137.402 112.187C136.457 111.89 135.462 111.787 134.477 111.885C133.492 111.984 132.537 112.282 131.67 112.761C130.804 113.24 130.043 113.89 129.436 114.672C128.829 115.454 128.386 116.351 128.136 117.309C127.886 118.267 127.834 119.266 127.982 120.245C128.13 121.225 128.476 122.163 128.998 123.005C129.52 123.846 130.208 124.572 131.019 125.14C131.831 125.707 132.749 126.103 133.719 126.305L133.731 126.36Z" fill="#6C63FF"/>
<path opacity="0.6" d="M133.388 65.0672C131.755 68.7499 120.339 76.4959 120.339 76.4959C120.339 76.4959 118.393 62.8453 120.026 59.1565C120.809 57.3846 122.265 55.9966 124.072 55.2979C125.879 54.5992 127.89 54.647 129.662 55.4308C131.434 56.2146 132.822 57.6702 133.521 59.4774C134.219 61.2846 134.171 63.2953 133.388 65.0672V65.0672Z" fill="#6C63FF"/>
<path opacity="0.6" d="M153.115 93.553C150.451 96.579 137.242 100.55 137.242 100.55C137.242 100.55 139.47 86.9425 142.152 83.9104C143.431 82.4543 145.236 81.5658 147.17 81.4403C149.103 81.3149 151.008 81.9627 152.464 83.2414C153.92 84.5201 154.809 86.3248 154.934 88.2586C155.06 90.1924 154.412 92.0969 153.133 93.553H153.115Z" fill="#6C63FF"/>
<path opacity="0.6" d="M168.484 123.862C166.372 127.299 154.029 133.449 154.029 133.449C154.029 133.449 153.925 119.657 156.036 116.214C157.05 114.563 158.679 113.383 160.563 112.933C162.447 112.483 164.433 112.8 166.084 113.814C167.735 114.828 168.915 116.457 169.365 118.341C169.815 120.225 169.498 122.211 168.484 123.862Z" fill="#6C63FF"/>
</g>
<path d="M90.4473 101.802C90.4473 101.802 180.674 105.485 192.949 101.802C192.949 101.802 186.198 252.793 188.653 257.703C188.653 257.703 88.6059 263.228 81.2405 257.703C73.8751 252.179 90.4473 101.802 90.4473 101.802Z" fill="white" stroke="#33313F" stroke-width="3" stroke-miterlimit="10"/>
<path d="M103.95 130.036C103.95 130.036 145.688 196.325 159.805 202.463Z" fill="white"/>
<path d="M103.95 130.036C103.95 130.036 145.688 196.325 159.805 202.463" stroke="#33313F" stroke-width="3" stroke-miterlimit="10"/>
<path d="M159.805 130.036C159.805 130.036 119.909 182.208 113.771 200.008Z" fill="white"/>
<path d="M159.805 130.036C159.805 130.036 119.909 182.208 113.771 200.008" stroke="#33313F" stroke-width="3" stroke-miterlimit="10"/>
<path d="M156.122 227.628H107.633C103.95 227.628 103.95 244.814 103.95 244.814H156.122V227.628Z" fill="white" stroke="#33313F" stroke-width="3" stroke-miterlimit="10"/>
<path d="M259.852 101.802C259.852 101.802 346.395 97.5058 362.354 101.802C362.354 101.802 355.602 252.793 358.057 257.703C358.057 257.703 247.478 266.352 250.645 257.703C257.397 239.29 259.852 101.802 259.852 101.802Z" fill="white" stroke="#33313F" stroke-width="3" stroke-miterlimit="10"/>
<path d="M293.579 113.317C293.579 113.317 312.84 143.914 319.358 146.744Z" fill="white"/>
<path d="M293.579 113.317C293.579 113.317 312.84 143.914 319.358 146.744" stroke="#33313F" stroke-width="3" stroke-miterlimit="10"/>
<path d="M319.358 113.317C319.358 113.317 300.945 137.396 298.109 145.614Z" fill="white"/>
<path d="M319.358 113.317C319.358 113.317 300.945 137.396 298.109 145.614" stroke="#33313F" stroke-width="3" stroke-miterlimit="10"/>
<path d="M341.338 166.25H276.276C271.366 166.25 271.366 183.436 271.366 183.436H341.338V166.25Z" fill="white" stroke="#33313F" stroke-width="3" stroke-miterlimit="10"/>
<path d="M332.456 220.876H283.967C280.285 220.876 280.285 238.062 280.285 238.062H332.456V220.876Z" fill="white" stroke="#33313F" stroke-width="3" stroke-miterlimit="10"/>
<path d="M341.338 191.415C346.279 191.415 282.034 196.939 276.276 191.415C273.244 188.512 271.366 208.601 271.366 208.601H341.338V191.415Z" fill="white" stroke="#33313F" stroke-width="3" stroke-miterlimit="10"/>
<path d="M300.061 229.162L303.743 232.845L310.495 223.638" fill="white"/>
<path d="M300.061 229.162L303.743 232.845L310.495 223.638" stroke="#33313F" stroke-width="3" stroke-miterlimit="10"/>
<path d="M424.96 103.03C424.96 103.03 510.889 113.464 527.462 103.03C527.462 103.03 520.71 254.021 523.165 258.931C523.165 258.931 409.124 265.321 415.753 258.931C432.325 242.973 424.96 103.03 424.96 103.03Z" fill="white" stroke="#33313F" stroke-width="3" stroke-miterlimit="10"/>
<path d="M436.898 129.729C436.898 129.729 449.278 149.371 453.47 151.212Z" fill="white"/>
<path d="M436.898 129.729C436.898 129.729 449.278 149.371 453.47 151.212" stroke="#33313F" stroke-width="3" stroke-miterlimit="10"/>
<path d="M453.47 129.729C453.47 129.729 441.636 145.234 439.838 150.488Z" fill="white"/>
<path d="M453.47 129.729C453.47 129.729 441.636 145.234 439.838 150.488" stroke="#33313F" stroke-width="3" stroke-miterlimit="10"/>
<path d="M507.673 170.239H442.612C437.702 170.239 437.702 179.335 437.702 179.335H507.673V170.239Z" fill="white" stroke="#33313F" stroke-width="3" stroke-miterlimit="10"/>
<path d="M472.203 197.246H506.09C511 197.246 511 206.342 511 206.342H511.147" fill="white"/>
<path d="M472.203 197.246H506.09C511 197.246 511 206.342 511 206.342H511.147" stroke="#33313F" stroke-width="3" stroke-miterlimit="10"/>
<path d="M507.673 183.552C512.614 183.552 448.369 186.474 442.612 183.552C439.58 182.018 437.702 192.642 437.702 192.642H507.673V183.552Z" fill="white" stroke="#33313F" stroke-width="3" stroke-miterlimit="10"/>
<path d="M425.475 114.544C425.475 114.544 520.735 121.585 526.86 116.908Z" fill="white"/>
<path d="M425.475 114.544C425.475 114.544 520.735 121.585 526.86 116.908" stroke="#33313F" stroke-width="3" stroke-miterlimit="10"/>
<path d="M514.873 110.193C516.174 109.916 517.512 110.309 518.832 110.512C520.151 110.714 521.649 110.69 522.607 109.769" fill="white"/>
<path d="M514.873 110.193C516.174 109.916 517.512 110.309 518.832 110.512C520.151 110.714 521.649 110.69 522.607 109.769" stroke="#33313F" stroke-width="2" stroke-miterlimit="10"/>
<path d="M514.216 112.611C516.967 113.095 519.765 113.25 522.552 113.071Z" fill="white"/>
<path d="M514.216 112.611C516.967 113.095 519.765 113.25 522.552 113.071" stroke="#33313F" stroke-width="2" stroke-miterlimit="10"/>
<path d="M514.204 116.042C516.562 115.642 518.941 115.375 521.33 115.244Z" fill="white"/>
<path d="M514.204 116.042C516.562 115.642 518.941 115.375 521.33 115.244" stroke="#33313F" stroke-width="2" stroke-miterlimit="10"/>
<path d="M430.833 111.475C431.986 112.008 433.247 112.263 434.516 112.218C435.316 112.328 436.129 112.152 436.812 111.721C437.616 111.07 437.683 109.88 437.683 108.842C437.707 108.527 437.661 108.211 437.548 107.916C437.393 107.633 437.167 107.396 436.892 107.228C435.375 106.172 432.558 105.743 430.784 106.461C428.354 107.443 428.747 110.34 430.833 111.475Z" fill="white" stroke="#33313F" stroke-width="2" stroke-miterlimit="10"/>
<path d="M457.994 125.887C457.638 130.429 458.724 134.941 459.454 139.44C460.376 145.119 460.742 150.875 460.547 156.626C450.861 157.215 441.164 157.356 431.454 157.049C432.356 157.08 432.129 136.524 432.215 134.634C432.325 132.215 431.81 128.054 434.615 127.145C437.561 126.182 441.71 126.777 444.803 126.63C449.198 126.425 453.595 126.178 457.994 125.887Z" fill="white" stroke="#33313F" stroke-width="3" stroke-miterlimit="10"/>
<path d="M207.066 172.387C207.066 172.387 231.004 171.16 235.3 172.387" stroke="#33313F" stroke-width="3" stroke-miterlimit="10"/>
<path d="M235.3 159.498C235.3 159.498 245.735 169.932 245.735 172.387C245.735 174.843 232.231 183.436 232.231 183.436" stroke="#33313F" stroke-width="3" stroke-miterlimit="10"/>
<path d="M372.788 172.387C372.788 172.387 396.726 171.16 401.022 172.387" stroke="#33313F" stroke-width="3" stroke-miterlimit="10"/>
<path d="M401.022 159.498C401.022 159.498 411.456 169.932 411.456 172.387C411.456 174.843 397.953 183.436 397.953 183.436" stroke="#33313F" stroke-width="3" stroke-miterlimit="10"/>
<path opacity="0.1" d="M231.593 26.5523C238.925 26.5523 244.869 20.6084 244.869 13.2762C244.869 5.94394 238.925 0 231.593 0C224.261 0 218.317 5.94394 218.317 13.2762C218.317 20.6084 224.261 26.5523 231.593 26.5523Z" fill="#6C63FF"/>
<path opacity="0.1" d="M433.595 44.8799C440.928 44.8799 446.872 38.936 446.872 31.6037C446.872 24.2715 440.928 18.3276 433.595 18.3276C426.263 18.3276 420.319 24.2715 420.319 31.6037C420.319 38.936 426.263 44.8799 433.595 44.8799Z" fill="#6C63FF"/>
<path opacity="0.1" d="M575.472 241.561C582.804 241.561 588.748 235.617 588.748 228.285C588.748 220.953 582.804 215.009 575.472 215.009C568.14 215.009 562.196 220.953 562.196 228.285C562.196 235.617 568.14 241.561 575.472 241.561Z" fill="#6C63FF"/>
<path opacity="0.1" d="M622.96 191.347C635.249 191.347 645.21 181.386 645.21 169.098C645.21 156.809 635.249 146.848 622.96 146.848C610.672 146.848 600.711 156.809 600.711 169.098C600.711 181.386 610.672 191.347 622.96 191.347Z" fill="#6C63FF"/>
<path opacity="0.1" d="M593.505 299.324C605.793 299.324 615.755 289.363 615.755 277.074C615.755 264.786 605.793 254.825 593.505 254.825C581.217 254.825 571.255 264.786 571.255 277.074C571.255 289.363 581.217 299.324 593.505 299.324Z" fill="#6C63FF"/>
<path opacity="0.1" d="M22.2497 229.752C34.5378 229.752 44.4994 219.79 44.4994 207.502C44.4994 195.214 34.5378 185.252 22.2497 185.252C9.96152 185.252 0 195.214 0 207.502C0 219.79 9.96152 229.752 22.2497 229.752Z" fill="#6C63FF"/>
<path d="M532.82 237.387C532.802 236.645 532.709 235.907 532.544 235.184C531.985 233.115 530.745 230.605 528.689 229.979C526.575 229.33 524.533 228.466 522.594 227.401C522.22 220.821 523.736 214.088 522.085 207.711C521.471 205.378 520.465 203.144 520.188 200.75C519.851 197.786 520.667 194.613 519.482 191.875C518.55 189.721 516.499 188.192 514.29 187.394C512.08 186.597 509.711 186.388 507.373 186.167C504.426 185.921 494.888 184.792 491.568 187.431C491.337 187.608 491.13 187.814 490.954 188.045V188.045C490.877 188.145 490.809 188.252 490.751 188.364C490.753 188.381 490.753 188.397 490.751 188.413C490.689 188.543 490.633 188.676 490.586 188.812V188.812C490.538 188.96 490.505 189.112 490.487 189.266C490.484 189.318 490.484 189.369 490.487 189.42C490.481 189.528 490.481 189.637 490.487 189.745V189.905C490.487 190.021 490.487 190.132 490.487 190.242C490.487 190.353 490.487 190.334 490.487 190.377C490.53 190.924 490.616 191.482 490.616 192.029C490.622 192.3 490.598 192.572 490.543 192.839C490.337 193.56 489.991 194.234 489.524 194.821V194.821L489.413 194.981L489.211 195.275L489.051 195.527L488.916 195.748C488.855 195.852 488.806 195.957 488.75 196.067L488.658 196.239C488.584 196.408 488.523 196.583 488.474 196.761C488.343 197.295 488.343 197.853 488.474 198.387C488.64 199.077 488.922 199.733 489.309 200.327C489.462 200.579 489.634 200.824 489.806 201.07C489.978 201.315 490.088 201.456 490.236 201.647C490.15 202.218 490.105 202.794 490.101 203.371C490.101 205.293 490.538 207.19 491.379 208.918C492.22 210.646 493.443 212.16 494.956 213.345C495.196 215.937 495.169 218.547 494.876 221.134C494.814 221.68 494.753 222.221 494.679 222.761C494.606 223.301 494.544 223.663 494.477 224.111C493.576 224.238 492.659 224.166 491.789 223.902C491.388 223.723 490.978 223.566 490.561 223.43C488.769 222.988 486.946 224.768 485.184 224.228C485.184 224.307 485.129 224.387 485.104 224.473C484.734 224.246 484.311 224.121 483.877 224.111C482.833 224.062 481.974 223.301 481.213 222.583L478.881 220.379C478.727 220.246 478.59 220.093 478.476 219.925C478.348 219.687 478.253 219.433 478.193 219.17C477.697 217.928 476.922 216.818 475.928 215.923C475.752 215.702 475.519 215.535 475.253 215.438C475.154 215.42 475.052 215.42 474.952 215.438C474.885 215.352 474.824 215.266 474.75 215.187C474.584 215.009 474.412 214.837 474.234 214.677C473.123 213.646 473.007 212.762 472.037 211.608C471.192 210.509 470.427 209.35 469.748 208.14C469.662 207.527 469.551 206.839 469.416 206.164C469.109 204.634 468.662 203.136 468.078 201.689L468.919 200.769V199.854L470.417 198.105L470.312 198.013L472.154 196.282L470.312 196.215L469.453 197.405L469.385 197.344L467.851 198.878L466.777 199.001L466.636 199.148C465.746 197.823 464.794 197.098 463.947 197.27C462.517 197.565 461.805 200.339 462.032 203.967L457.779 208.417L457.3 208.92L455.103 211.737L456.827 213.394L459.473 210.939L459.896 210.479L462.529 207.625C462.529 207.717 462.572 207.809 462.591 207.901C462.506 208.338 462.461 208.782 462.456 209.227C462.456 209.748 462.941 210.123 463.186 210.589C463.595 211.21 463.808 211.939 463.8 212.682C463.8 212.94 463.689 213.192 463.683 213.456C463.713 214.03 463.912 214.583 464.254 215.045C465.281 216.764 466.304 218.483 467.323 220.201C467.532 220.563 467.753 220.925 467.937 221.281C467.939 221.3 467.939 221.318 467.937 221.337C468.131 221.712 468.413 222.034 468.759 222.276C468.88 223.569 469.222 224.831 469.772 226.008C469.883 226.235 469.999 226.462 470.122 226.683C470.945 228.037 471.915 229.297 473.013 230.439L474.48 232.078C475.916 233.692 477.358 235.3 478.924 236.792C479.486 237.387 480.165 237.859 480.918 238.179C481.285 238.328 481.684 238.377 482.076 238.321C482.467 238.265 482.837 238.106 483.146 237.86C483.146 238.621 483.146 239.382 483.146 240.137C483.364 240.175 483.571 240.256 483.755 240.376C483.94 240.497 484.098 240.653 484.221 240.837C484.302 241.052 484.334 241.282 484.316 241.511C484.298 241.74 484.23 241.963 484.116 242.162C482.833 245.471 481.532 248.804 479.574 251.774C480.953 252.586 482.23 253.559 483.38 254.671C484.13 255.499 484.796 256.4 485.368 257.36C485.417 257.808 485.46 258.262 485.491 258.71C485.945 266.026 483.116 273.287 480.581 280.26C479.857 282.23 479.053 284.305 479.12 286.355C478.638 286.655 478.177 286.987 477.739 287.349C478.242 288.657 478.046 289.804 477.997 291.234C477.976 292.077 477.802 292.91 477.481 293.69C477.242 294.236 476.867 294.745 476.604 295.267C475.014 298.072 474.658 301.405 474.339 304.603C474.148 306.542 474.903 308.899 474.019 310.63C472.51 313.607 471.165 316.768 470.92 320.07C470.912 320.815 470.819 321.556 470.644 322.28C470.453 322.893 470.11 323.415 469.938 324.017C469.762 324.823 469.723 325.653 469.821 326.472C469.937 329.414 469.497 332.352 468.526 335.132C467.759 337.33 466.918 339.674 467.519 341.927C466.038 343.479 465.123 345.486 464.923 347.623C464.905 348.17 464.837 348.714 464.721 349.249C464.534 349.798 464.289 350.325 463.99 350.821C462.755 353.071 462.175 355.623 462.315 358.186C460.473 360.678 459.559 363.765 459.012 366.828C458.466 369.891 458.221 373.009 457.521 376.035C456.594 380.043 454.906 384.088 454.569 388.182C452.58 389.458 451.727 391.92 451.34 394.246C450.953 396.572 450.898 399.009 449.928 401.163C449.425 402.28 448.701 403.281 448.222 404.416C447.882 405.324 447.634 406.264 447.479 407.221C447.185 408.725 446.927 410.388 447.295 411.825C446.775 412.378 446.168 412.843 445.497 413.2C445.589 412.819 445.675 412.432 445.736 412.046C444.153 413.488 441.286 412.985 440.016 414.709C439.639 415.266 439.493 415.947 439.607 416.61C439.722 417.272 440.088 417.865 440.63 418.263C441.028 418.504 441.457 418.688 441.906 418.81C444.945 419.785 448.13 420.78 451.279 420.258C451.652 420.215 452.013 420.098 452.341 419.914C452.754 419.615 453.092 419.225 453.329 418.773L454.747 416.526C455.877 416.866 457.027 417.136 458.19 417.336C458.305 418.314 458.384 419.296 458.429 420.283C459.043 420.405 459.866 420.436 460.154 419.871C460.243 419.656 460.281 419.423 460.265 419.19C460.265 418.748 460.32 418.171 460.363 417.582H460.486C462.359 417.656 464.222 417.277 465.918 416.477C465.255 411.045 467.421 405.73 469.306 400.586C471.288 395.173 472.988 389.655 474.695 384.143C475.922 380.27 477.285 376.508 478.482 372.628C480.004 367.718 481.524 362.808 483.042 357.898C483.711 355.737 484.374 353.601 485.141 351.453C486.743 347.105 488.642 342.872 490.825 338.784C491.439 337.63 492.052 336.483 492.562 335.273C493.176 333.807 493.611 332.272 494.096 330.762C495.17 327.65 496.46 324.617 497.957 321.684L498.068 321.457C498.565 323.489 499.068 325.557 499.393 327.595C499.845 330.101 499.88 332.664 499.498 335.181C499.203 336.894 498.645 338.588 498.718 340.319C498.81 342.725 500.087 344.898 500.719 347.218C501.126 348.95 501.358 350.718 501.413 352.496C501.578 355.252 503.082 358.352 502.026 360.911C498.749 369.019 500.339 378.177 498.46 386.69C497.503 391.06 494.551 395.173 494.778 399.641C494.941 402.812 495.22 405.975 495.612 409.13C495.681 410.093 495.907 411.039 496.281 411.929C496.532 412.403 496.813 412.86 497.122 413.298C496.858 413.408 496.625 413.684 496.435 414.268C496.154 415.033 496.135 415.871 496.382 416.649C496.629 417.426 497.127 418.1 497.797 418.564C498.351 418.861 498.947 419.068 499.565 419.178C500.4 419.412 501.263 419.531 502.131 419.534C502.401 419.521 502.67 419.486 502.935 419.429C503.885 419.83 504.856 420.178 505.844 420.473C505.844 420.727 505.869 420.978 505.918 421.228C505.918 421.36 505.947 421.491 506.003 421.611C506.059 421.731 506.141 421.837 506.243 421.921C506.395 421.999 506.565 422.031 506.734 422.014H510.067C510.067 421.737 510.067 421.455 510.067 421.179C510.449 421.219 510.835 421.178 511.2 421.059C511.565 420.939 511.901 420.744 512.185 420.485C512.483 420.114 512.693 419.679 512.798 419.215C513.707 416.129 514.611 413.046 515.511 409.965C515.925 408.662 516.243 407.331 516.463 405.981C516.849 403.811 516.971 401.601 516.825 399.402C515.646 388.09 518.249 376.741 517.402 365.398C516.889 358.583 517.24 351.73 518.445 345.002C518.721 343.48 519.059 341.933 519.182 340.417C519.446 337.557 519.12 334.666 519.317 331.824C519.39 330.83 519.525 329.841 519.648 328.853C520.528 322.72 521.008 316.537 521.084 310.342C521.071 308.29 520.946 306.241 520.71 304.204C521.346 304.034 521.923 303.695 522.38 303.222C522.932 302.504 522.791 301.509 522.785 300.601C522.785 298.428 523.699 296.372 524.43 294.322C525.373 291.506 526.15 288.636 526.756 285.729C527.389 283.375 527.735 280.954 527.787 278.517C527.787 278.271 527.787 278.026 527.75 277.774C527.981 277.615 528.172 277.405 528.309 277.16C528.471 276.801 528.571 276.417 528.603 276.025C528.83 274.454 529.051 272.888 529.278 271.317C529.438 270.192 529.6 269.067 529.763 267.941C530.414 263.408 531.063 258.87 531.709 254.328C531.881 253.143 532.047 251.965 532.219 250.78L532.722 247.263C532.783 246.846 532.838 246.428 532.888 246.005C534.41 243.58 532.973 240.235 532.82 237.387ZM516.561 288.38C515.83 286.668 515.155 284.906 515.333 283.047H515.272C515.428 282.475 515.398 281.869 515.186 281.316C514.996 280.862 514.67 280.481 514.468 280.039C514.25 279.49 514.137 278.905 514.136 278.314C513.985 274.584 514.278 270.848 515.008 267.186C515.088 266.751 515.174 266.321 515.26 265.885C515.514 265.737 515.747 265.555 515.953 265.345C516.276 264.977 516.542 264.563 516.745 264.117C517.437 262.726 518.075 261.308 518.66 259.864C518.85 259.391 519.127 258.857 519.599 258.741C519.501 262.331 519.869 265.996 518.372 269.236C518.093 269.758 517.886 270.316 517.758 270.894C517.623 271.802 518.003 272.735 517.868 273.643C517.801 274.11 517.598 274.552 517.512 275.012C517.453 275.242 517.455 275.483 517.519 275.711C517.583 275.94 517.705 276.147 517.874 276.313C517.952 276.373 518.039 276.421 518.132 276.455C518.095 276.7 518.065 276.952 518.046 277.191C517.991 277.694 517.973 278.167 517.942 278.462C517.799 279.961 517.741 281.467 517.77 282.973C517.77 284.599 517.838 286.232 517.807 287.883C517.832 288.359 517.753 288.835 517.574 289.276C517.452 289.505 517.295 289.712 517.107 289.89C516.935 289.344 516.739 288.859 516.561 288.38Z" fill="url(#paint0_linear)"/>
<path d="M470.165 198.952L472.227 197.031L470.386 196.963L469.422 198.436L470.165 198.952Z" fill="#33313F"/>
<path d="M455.33 212.406L457.515 209.601L458 209.098L464.69 202.095L466.967 199.707L468.035 199.584L469.57 198.056L470.472 198.848L468.98 200.591L469.011 201.505L466.679 204.034L460.111 211.16L459.688 211.614L457.048 214.057L455.33 212.406Z" fill="#65617D"/>
<path d="M458 209.098L464.69 202.095L466.679 204.034L460.111 211.16L458 209.098Z" fill="#33313F"/>
<path d="M468.086 217.164C469.959 216.78 470.597 212.17 469.51 206.867C468.423 201.563 466.024 197.575 464.151 197.959C462.278 198.343 461.641 202.953 462.727 208.256C463.814 213.56 466.213 217.548 468.086 217.164Z" fill="#FBBEBE"/>
<path d="M496.686 414.452C496.414 415.212 496.399 416.041 496.644 416.811C496.889 417.581 497.381 418.248 498.043 418.711C498.597 419.007 499.193 419.214 499.811 419.325C500.642 419.559 501.501 419.679 502.364 419.681C503.432 419.626 504.451 419.215 505.506 419.067C505.63 419.041 505.759 419.06 505.869 419.123C505.921 419.179 505.961 419.246 505.986 419.319C506.01 419.392 506.018 419.469 506.01 419.546C506.021 420.152 506.066 420.756 506.145 421.357C506.129 421.465 506.14 421.576 506.176 421.68C506.212 421.784 506.272 421.877 506.351 421.954C506.43 422.03 506.526 422.086 506.631 422.118C506.736 422.149 506.847 422.156 506.955 422.136H510.276C510.353 419.213 510.029 416.292 509.312 413.457C509.267 413.24 509.184 413.032 509.066 412.844C508.789 412.532 508.419 412.317 508.011 412.23C507.195 411.891 506.315 411.738 505.433 411.782C504.365 411.917 503.463 412.616 502.548 413.193C501.633 413.77 500.388 414.28 499.277 413.979C498.166 413.678 497.251 412.745 496.686 414.452Z" fill="#3F3D56"/>
<path d="M447.817 411.757C446.884 412.757 445.739 413.535 444.466 414.034L443.895 414.311C443.856 414.322 443.819 414.342 443.787 414.369C443.756 414.395 443.73 414.427 443.711 414.464C443.699 414.511 443.698 414.56 443.708 414.608C443.717 414.656 443.737 414.701 443.766 414.74C444.237 415.465 444.932 416.017 445.745 416.313C446.557 416.609 447.444 416.632 448.271 416.379C448.639 416.288 448.979 416.111 449.266 415.863C449.731 415.305 449.999 414.608 450.027 413.881C450.206 413.134 450.174 412.352 449.935 411.622C449.1 409.695 448.787 410.566 447.817 411.757Z" fill="#FBBEBE"/>
<path d="M460.596 419.319C460.616 419.552 460.578 419.786 460.486 420C460.203 420.565 459.393 420.528 458.767 420.412C458.675 418.327 458.424 416.253 458.018 414.206C456.827 414.151 455.962 415.286 455.33 416.293L453.685 418.908C453.446 419.357 453.108 419.745 452.697 420.043C452.371 420.226 452.012 420.343 451.641 420.387C448.498 420.903 445.325 419.914 442.293 418.938C441.847 418.817 441.419 418.635 441.022 418.398C440.48 418.002 440.113 417.41 439.998 416.749C439.884 416.087 440.031 415.406 440.409 414.851C441.673 413.132 444.533 413.623 446.111 412.199C445.948 413.202 445.677 414.183 445.301 415.127C447.424 414.808 448.842 412.868 450.555 411.573C450.98 411.203 451.497 410.955 452.052 410.855C452.466 410.823 452.883 410.868 453.28 410.99C455.248 411.484 457.089 412.39 458.681 413.648C459.326 414.157 460.332 414.875 460.614 415.661C460.915 416.6 460.59 418.319 460.596 419.319Z" fill="#3F3D56"/>
<path d="M502.818 216.801C509.822 216.801 515.499 211.124 515.499 204.12C515.499 197.117 509.822 191.439 502.818 191.439C495.815 191.439 490.137 197.117 490.137 204.12C490.137 211.124 495.815 216.801 502.818 216.801Z" fill="#FBBEBE"/>
<path d="M527.799 278.996C527.748 281.424 527.402 283.838 526.768 286.183C526.17 289.091 525.398 291.961 524.454 294.776C523.724 296.82 522.803 298.87 522.809 301.037C522.809 301.939 522.956 302.933 522.41 303.651C521.914 304.149 521.293 304.503 520.612 304.676C520.274 304.766 519.962 304.934 519.701 305.166C519.44 305.399 519.237 305.689 519.108 306.014C518.529 305.156 518.095 304.209 517.825 303.209C516.729 299.838 515.706 296.448 514.756 293.039C514.669 292.843 514.63 292.629 514.644 292.415C514.658 292.201 514.724 291.994 514.836 291.811C514.993 291.674 515.177 291.571 515.376 291.511C516.004 291.252 516.578 290.879 517.07 290.412C517.304 290.208 517.497 289.962 517.641 289.688C517.82 289.246 517.9 288.77 517.874 288.294C517.874 286.674 517.874 285.048 517.837 283.427C517.81 281.926 517.865 280.424 518.003 278.928C518.003 278.627 518.058 278.161 518.108 277.658C518.2 276.688 518.384 275.577 518.912 275.202C519.685 274.675 522.017 275.38 522.907 275.497C524.43 275.712 525.946 275.957 527.455 276.246C527.672 277.147 527.787 278.069 527.799 278.996V278.996Z" fill="#3F3D56"/>
<path d="M476.591 218.323C476.1 219.305 474.922 219.772 474.013 220.398L470.902 222.534C470.694 222.719 470.451 222.861 470.187 222.952C469.924 223.042 469.645 223.08 469.367 223.061C469.114 222.968 468.882 222.825 468.685 222.64C468.488 222.456 468.329 222.234 468.219 221.987L468.182 221.932L467.569 220.858L464.5 215.714C464.16 215.251 463.962 214.699 463.929 214.125C463.929 213.867 464.021 213.615 464.052 213.358C464.055 212.617 463.842 211.892 463.438 211.271C463.192 210.804 462.695 210.43 462.714 209.914C462.687 209.235 462.804 208.557 463.057 207.926C463.379 207.344 463.838 206.851 464.395 206.489C464.684 206.281 465.009 206.084 465.285 205.876C465.451 205.766 465.633 205.685 465.826 205.636C466.329 205.532 466.832 205.949 467.348 205.968C469.57 207.453 470.417 210.264 472.166 212.296C473.148 213.444 473.246 214.327 474.357 215.365C474.537 215.524 474.708 215.694 474.867 215.874C475.091 216.111 475.28 216.38 475.425 216.672C475.622 217.194 476.849 217.82 476.591 218.323Z" fill="#3F3D56"/>
<path d="M498.356 216.838C499.271 218.771 499.983 220.895 499.719 223.019C499.666 223.593 499.486 224.149 499.191 224.645C498.307 226.002 496.453 226.241 494.833 226.327C494.494 226.299 494.153 226.34 493.829 226.445C493.506 226.55 493.206 226.719 492.949 226.941C492.731 227.253 492.624 227.63 492.645 228.01C492.666 228.391 492.814 228.753 493.065 229.04C493.58 229.598 494.225 230.02 494.943 230.267C497.497 231.397 500.247 232.323 503.027 232.06C504.316 231.937 505.568 231.569 506.851 231.378C508.241 231.231 509.639 231.159 511.037 231.163C512.706 231.102 514.37 230.936 516.033 230.771L520.434 230.335C520.675 230.339 520.909 230.254 521.091 230.095C521.422 229.715 520.999 229.156 520.6 228.868C518.255 227.131 515.278 225.946 513.952 223.344C513.339 222.116 513.142 220.662 512.688 219.33C512.234 217.998 511.509 216.813 511.233 215.457C511.083 214.274 511.015 213.083 511.031 211.891C511.05 210.686 510.612 209.519 509.803 208.625C508.932 207.809 507.661 207.6 506.464 207.545C503.53 207.422 500.412 208.122 498.325 210.19C497.767 210.749 497.294 211.387 496.711 211.921C496.128 212.455 495.355 212.572 495.735 213.235C496.116 213.898 496.858 214.303 497.263 214.892C497.68 215.51 498.045 216.161 498.356 216.838V216.838Z" fill="#FBBEBE"/>
<path d="M523.361 234.662C522.591 239.386 521.341 244.02 519.63 248.491C518.76 250.509 518.022 252.582 517.42 254.696C516.941 256.599 517.039 258.636 516.598 260.545C516.057 262.914 515.517 265.302 515.082 267.696C514.351 271.347 514.058 275.072 514.21 278.793C514.211 279.382 514.324 279.965 514.541 280.512C514.744 280.954 515.075 281.334 515.26 281.782C515.405 282.18 515.466 282.604 515.437 283.027C515.409 283.45 515.292 283.863 515.094 284.237C514.778 284.941 514.351 285.59 513.829 286.158C508.103 287.865 501.989 287.3 496.03 287.662C490.506 288 484.982 289.129 479.568 288.184C478.954 285.729 479.973 283.163 480.857 280.769C483.398 273.815 486.221 266.573 485.767 259.287C485.717 258.439 485.619 257.595 485.473 256.758C484.589 251.596 485.552 246.25 487.105 241.242C488.075 238.13 488.032 234.803 487.805 231.556C487.696 230.504 487.681 229.444 487.762 228.389C487.855 227.311 488.256 226.282 488.916 225.425L489.008 225.296C489.075 225.191 489.278 225.253 489.462 225.296C489.511 225.316 489.563 225.326 489.616 225.326C489.668 225.326 489.72 225.316 489.769 225.296C489.787 225.275 489.81 225.26 489.837 225.253C489.863 225.236 489.894 225.228 489.926 225.228C489.957 225.228 489.988 225.236 490.015 225.253C490.156 225.345 490.229 225.633 490.536 225.688C490.99 225.759 491.447 225.804 491.905 225.823C492.456 225.839 493.004 225.918 493.538 226.057H493.611C494.41 226.189 495.228 226.119 495.993 225.854C496.501 225.727 496.992 225.537 497.454 225.289C497.83 225.138 498.216 225.009 498.608 224.903C499.172 224.559 499.049 222.976 499.166 222.331C499.228 221.679 499.381 221.038 499.62 220.428C499.899 219.978 500.285 219.602 500.743 219.336C501.201 219.069 501.718 218.92 502.247 218.9C503.306 218.869 504.365 218.963 505.402 219.182C507.685 219.508 510.03 219.446 512.283 219.974C513.412 220.238 514.64 220.643 515.683 220.128C515.959 220.189 516.002 220.441 516.002 220.741C515.981 221.028 515.923 221.31 515.83 221.582C515.444 223.276 516.776 224.829 517.997 226.063C518.527 226.642 519.149 227.13 519.838 227.505C520.452 227.788 521.066 227.904 521.68 228.211C522.179 228.473 522.602 228.86 522.907 229.334C523.265 229.873 523.503 230.482 523.607 231.12C523.724 232.306 523.641 233.504 523.361 234.662V234.662Z" fill="#3F3D56"/>
<path opacity="0.1" d="M523.362 234.662C522.591 239.386 521.341 244.02 519.63 248.491C518.761 250.509 518.022 252.582 517.42 254.696C516.941 256.599 517.04 258.636 516.598 260.545C516.058 262.915 515.517 265.302 515.082 267.696C514.953 267.77 514.824 267.831 514.689 267.892C513.925 268.258 513.116 268.52 512.283 268.672C510.784 268.85 509.267 268.8 507.784 268.524L499.007 267.377C495.508 266.91 491.782 266.339 489.186 263.97C487.75 262.669 486.798 260.95 485.767 259.287C485.718 258.439 485.619 257.595 485.473 256.758C484.589 251.596 485.552 246.25 487.105 241.242C488.075 238.13 488.032 234.803 487.805 231.556C487.696 230.504 487.681 229.444 487.762 228.389C487.855 227.311 488.256 226.282 488.916 225.425C489.095 225.371 489.278 225.328 489.462 225.296V225.296C489.586 225.272 489.711 225.258 489.837 225.253H490.015C490.221 225.253 490.427 225.278 490.628 225.326C491.04 225.431 491.42 225.652 491.825 225.799H491.899C492.426 225.969 492.978 226.048 493.532 226.032C494.342 226.032 495.177 225.897 495.987 225.848C496.987 225.689 498.012 225.871 498.896 226.364C499.468 226.823 500.009 227.319 500.516 227.849C501.136 228.327 501.828 228.702 502.567 228.96C507.848 230.978 513.709 230.852 518.899 228.61C519.4 228.332 519.965 228.19 520.538 228.199C520.963 228.281 521.366 228.451 521.723 228.696C522.085 228.911 522.453 229.12 522.821 229.31C523.179 229.849 523.417 230.458 523.521 231.096C523.669 232.285 523.615 233.491 523.362 234.662V234.662Z" fill="black"/>
<path d="M528.701 230.599C526.258 229.856 523.911 228.826 521.71 227.53C521.355 227.281 520.951 227.11 520.526 227.027C519.952 227.017 519.386 227.161 518.887 227.444C513.695 229.681 507.836 229.804 502.554 227.788C501.815 227.532 501.122 227.157 500.504 226.677C499.998 226.148 499.458 225.652 498.89 225.191C496.871 223.884 494.078 225.425 491.813 224.578C491.422 224.399 491.023 224.242 490.616 224.105C488.83 223.663 487.013 225.437 485.252 224.903C484.596 226.677 484.115 228.51 483.815 230.378C483.566 232.521 483.432 234.677 483.416 236.835C483.38 238.124 483.349 239.419 483.416 240.714C483.633 240.752 483.841 240.833 484.025 240.953C484.21 241.074 484.368 241.23 484.491 241.414C484.57 241.627 484.602 241.855 484.584 242.082C484.566 242.309 484.498 242.529 484.386 242.727C483.103 246.029 481.808 249.356 479.856 252.314C481.231 253.126 482.505 254.099 483.65 255.212C485.804 257.483 486.854 260.662 489.174 262.761C491.788 265.13 495.52 265.701 498.994 266.174L507.759 267.377C509.243 267.652 510.76 267.702 512.258 267.524C513.091 267.372 513.9 267.11 514.664 266.745C515.162 266.536 515.616 266.237 516.002 265.861C516.324 265.492 516.591 265.079 516.794 264.633C517.481 263.246 518.12 261.828 518.697 260.392C518.905 259.882 519.212 259.281 519.765 259.244C523.012 256.31 526.087 253.303 529.334 250.369C530.641 249.286 531.814 248.049 532.826 246.686C534.446 244.298 532.973 240.91 532.826 238.032C532.813 237.292 532.722 236.555 532.556 235.834C531.985 233.729 530.745 231.225 528.701 230.599Z" fill="#6C63FF"/>
<path opacity="0.1" d="M476.591 218.323C476.1 219.305 474.922 219.772 474.013 220.398L470.901 222.534C470.693 222.719 470.451 222.861 470.187 222.952C469.924 223.042 469.645 223.08 469.367 223.061C469.114 222.968 468.882 222.825 468.684 222.64C468.487 222.456 468.329 222.234 468.219 221.987C468.219 221.84 468.219 221.693 468.219 221.545C468.195 221.049 468.261 220.551 468.415 220.078C468.722 219.386 469.194 218.779 469.79 218.311C470.944 217.214 472.319 216.377 473.823 215.856C474.059 215.762 474.316 215.736 474.566 215.782C474.659 215.807 474.748 215.846 474.83 215.899C475.054 216.135 475.243 216.404 475.388 216.697C475.621 217.194 476.849 217.82 476.591 218.323Z" fill="black"/>
<path d="M483.92 224.811C482.876 224.762 482.023 224.001 481.268 223.282L478.936 221.085C478.781 220.953 478.644 220.8 478.531 220.631C478.408 220.394 478.315 220.142 478.255 219.882C477.757 218.645 476.985 217.536 475.996 216.641C475.818 216.423 475.585 216.255 475.321 216.156C475.071 216.112 474.813 216.14 474.578 216.236C473.074 216.757 471.699 217.594 470.546 218.691C469.947 219.156 469.474 219.764 469.171 220.459C469.016 220.932 468.95 221.429 468.974 221.926C468.987 223.556 469.353 225.165 470.048 226.64C470.159 226.867 470.269 227.094 470.392 227.315C471.217 228.663 472.184 229.918 473.277 231.059L474.738 232.698C476.174 234.3 477.61 235.908 479.175 237.393C479.732 237.989 480.407 238.462 481.158 238.781C481.536 238.935 481.949 238.981 482.352 238.915C482.755 238.849 483.132 238.673 483.441 238.406C483.737 238.067 483.959 237.67 484.092 237.24C485.043 234.785 485.933 232.238 485.988 229.592C486.007 228.533 485.964 227.473 485.859 226.419C485.755 225.296 484.969 224.86 483.92 224.811Z" fill="#6C63FF"/>
<path d="M521.115 310.741C521.082 316.915 520.645 323.08 519.808 329.197C519.685 330.179 519.55 331.167 519.483 332.162C519.28 335.022 519.605 337.907 519.341 340.755C519.194 342.289 518.881 343.824 518.605 345.327C517.404 352.037 517.056 358.871 517.568 365.668C518.408 376.98 515.818 388.298 516.991 399.58C517.136 401.773 517.016 403.976 516.635 406.141C516.413 407.486 516.095 408.813 515.683 410.112C514.779 413.189 513.879 416.258 512.983 419.319C512.874 419.783 512.665 420.217 512.369 420.59C512.057 420.862 511.69 421.065 511.293 421.184C510.896 421.302 510.478 421.334 510.067 421.277C506.526 421.16 503.199 419.638 499.983 418.141C499.611 417.999 499.268 417.791 498.97 417.527C498.301 416.833 498.356 415.735 498.061 414.826C497.767 413.918 496.963 413.052 496.509 412.107C496.141 411.219 495.915 410.279 495.84 409.32C495.43 406.174 495.152 403.019 495.005 399.856C494.778 395.4 497.718 391.3 498.688 386.966C500.56 378.447 498.976 369.314 502.247 361.224C503.272 358.677 501.781 355.584 501.634 352.834C501.584 351.06 501.354 349.295 500.946 347.568C500.332 345.254 499.043 343.087 498.951 340.693C498.878 338.962 499.436 337.274 499.731 335.562C500.108 333.053 500.072 330.498 499.627 328C499.301 325.938 498.798 323.876 498.301 321.862L498.19 322.089C496.695 325.012 495.409 328.038 494.342 331.143C493.857 332.647 493.421 334.175 492.807 335.642C492.304 336.869 491.69 337.986 491.083 339.14C488.902 343.215 487.007 347.435 485.411 351.772C484.65 353.896 483.987 356.069 483.318 358.198C481.808 363.109 480.294 368.019 478.776 372.929C477.579 376.802 476.198 380.546 475.002 384.413C473.301 389.937 471.601 395.412 469.625 400.807C467.747 405.939 465.586 411.242 466.243 416.661C464.552 417.456 462.696 417.833 460.829 417.76C457.666 417.478 454.562 416.722 451.623 415.52C450.416 415.182 449.32 414.53 448.449 413.629C447.081 411.966 447.424 409.529 447.835 407.418C447.989 406.462 448.238 405.525 448.578 404.619C449.038 403.483 449.775 402.483 450.278 401.372C451.248 399.224 451.309 396.799 451.69 394.473C452.071 392.147 452.918 389.698 454.906 388.427C455.238 384.346 456.926 380.307 457.852 376.317C458.552 373.291 458.785 370.179 459.332 367.111C459.878 364.042 460.78 360.973 462.634 358.518C462.487 355.955 463.063 353.403 464.297 351.152C464.597 350.659 464.842 350.134 465.028 349.587C465.145 349.054 465.213 348.512 465.23 347.967C465.429 345.836 466.34 343.834 467.814 342.283C467.2 340.036 468.06 337.704 468.821 335.531C469.792 332.76 470.229 329.83 470.11 326.895C470.016 326.076 470.058 325.246 470.232 324.44C470.404 323.826 470.742 323.305 470.932 322.709C471.114 321.989 471.207 321.249 471.208 320.506C471.454 317.191 472.792 314.061 474.277 311.097C475.155 309.366 474.406 307.015 474.596 305.081C474.916 301.878 475.265 298.569 476.849 295.77C477.171 295.262 477.464 294.735 477.727 294.193C478.049 293.414 478.222 292.581 478.236 291.738C478.291 290.338 478.488 289.166 477.985 287.865C481.268 285.127 485.755 284.366 490.021 284.213C494.287 284.059 498.614 284.415 502.794 283.501C504.021 283.231 505.249 282.844 506.544 282.66C509.49 282.23 512.467 282.905 515.37 283.568C515.168 285.41 515.843 287.177 516.567 288.89C519.505 295.804 521.051 303.229 521.115 310.741Z" fill="#33313F"/>
<path opacity="0.1" d="M506.661 312.128L499.614 327.988C499.289 325.926 498.786 323.863 498.288 321.85L498.178 322.077L498.209 321.746L502.051 313.288L506.661 312.128Z" fill="black"/>
<path opacity="0.1" d="M527.799 278.996C527.389 279.294 526.905 279.474 526.4 279.517C525.621 279.542 524.843 279.436 524.098 279.204L518.605 277.811C518.431 277.773 518.262 277.716 518.102 277.639C518.194 276.669 518.378 275.558 518.906 275.184C519.679 274.656 522.011 275.362 522.901 275.479C524.424 275.693 525.94 275.939 527.449 276.227C527.669 277.134 527.786 278.063 527.799 278.996V278.996Z" fill="black"/>
<path d="M532.464 242.476C532.587 242.985 532.753 243.488 532.845 244.004C533.009 245.267 532.968 246.548 532.722 247.797L532.219 251.308L531.715 254.843L529.77 268.426L529.285 271.79L528.616 276.485C528.58 276.875 528.48 277.257 528.321 277.615C528.118 277.948 527.836 278.226 527.5 278.424C527.164 278.622 526.784 278.734 526.394 278.75C525.616 278.774 524.841 278.669 524.098 278.437L518.605 277.05C518.365 277.006 518.137 276.912 517.936 276.774C517.766 276.609 517.644 276.403 517.58 276.175C517.517 275.948 517.514 275.707 517.574 275.479C517.653 275.012 517.856 274.576 517.93 274.11C518.065 273.202 517.678 272.269 517.819 271.366C517.946 270.788 518.153 270.23 518.433 269.709C520.274 265.64 519.206 260.895 519.832 256.476C520.375 253.001 521.823 249.731 524.031 246.993C525.4 245.269 526.977 243.72 528.726 242.383C529.42 241.849 530.512 240.745 531.371 240.542C532.519 240.309 532.286 241.702 532.464 242.476Z" fill="#6C63FF"/>
<path d="M490.665 189.604C490.26 190.887 490.892 192.305 490.604 193.624C490.285 195.073 488.928 196.08 488.542 197.534C487.928 199.75 489.806 201.769 491.175 203.611C496.269 210.442 495.6 219.907 493.857 228.254C492.457 234.947 490.518 241.516 488.057 247.895C487.296 249.872 486.442 251.891 484.939 253.376C487.762 252.566 490.757 251.75 493.593 252.535C497.178 253.53 500.271 257.01 503.899 256.218C506.09 255.727 507.618 253.763 509.588 252.72C513.271 250.737 517.703 251.983 521.815 252.615C522.699 252.83 523.627 252.783 524.485 252.48C525.14 252.128 525.697 251.617 526.105 250.995C527.935 248.643 529.031 245.803 529.254 242.832C529.353 241.351 529.136 239.867 528.616 238.477C528.097 237.087 527.287 235.824 526.24 234.773C525.375 233.95 524.331 233.287 523.662 232.317C523.008 231.186 522.659 229.905 522.65 228.598C522.159 221.846 523.804 214.96 522.116 208.429C521.502 206.103 520.495 203.875 520.225 201.487C519.888 198.529 520.698 195.349 519.519 192.636C518.586 190.488 516.542 188.954 514.345 188.174C512.112 187.454 509.791 187.041 507.446 186.946C504.083 186.652 492.071 185.216 490.665 189.604Z" fill="#33313F"/>
<g opacity="0.1">
<path opacity="0.1" d="M493.851 228.254C492.455 234.919 490.526 241.46 488.081 247.815C488.505 246.975 488.867 246.091 489.205 245.213C491.665 238.833 493.605 232.265 495.005 225.572C496.748 217.231 497.417 207.772 492.323 200.928C491.095 199.302 489.518 197.534 489.579 195.613C489.123 196.193 488.77 196.847 488.536 197.546C487.922 199.762 489.8 201.782 491.169 203.623C496.269 210.442 495.6 219.907 493.851 228.254Z" fill="black"/>
<path opacity="0.1" d="M490.678 192.998C491.167 192.384 491.533 191.682 491.758 190.93C491.853 190.018 491.828 189.098 491.684 188.192C491.211 188.55 490.856 189.042 490.665 189.604C490.322 190.69 490.721 191.881 490.678 192.998Z" fill="black"/>
<path opacity="0.1" d="M527.259 248.288C526.849 248.912 526.29 249.425 525.633 249.78C524.777 250.082 523.851 250.129 522.969 249.915C518.856 249.301 514.376 248.03 510.742 250.019C508.772 251.087 507.238 253.026 505.052 253.511C501.419 254.321 498.301 250.847 494.741 249.829C492.206 249.123 489.53 249.706 486.964 250.442C486.458 251.529 485.773 252.522 484.939 253.382C487.762 252.572 490.757 251.756 493.593 252.542C497.178 253.536 500.271 257.016 503.899 256.224C506.084 255.733 507.618 253.769 509.588 252.726C513.271 250.743 517.703 251.989 521.815 252.621C522.699 252.836 523.627 252.789 524.485 252.486C525.14 252.134 525.697 251.623 526.105 251.001C527.212 249.53 528.07 247.888 528.646 246.14C528.235 246.888 527.772 247.606 527.259 248.288V248.288Z" fill="black"/>
</g>
<path d="M562.773 353.257C562.773 353.257 566.412 358.02 561.097 365.208C555.782 372.395 551.387 378.472 553.161 382.94C553.161 382.94 561.189 369.59 567.72 369.437C574.25 369.283 569.96 361.286 562.773 353.257Z" fill="#6C63FF"/>
<path opacity="0.1" d="M562.773 353.257C563.091 353.718 563.342 354.222 563.515 354.755C569.893 362.243 573.287 369.228 567.161 369.406C561.453 369.572 554.609 379.773 552.964 382.351C553.02 382.553 553.087 382.744 553.161 382.965C553.161 382.965 561.189 369.615 567.72 369.461C574.25 369.308 569.96 361.286 562.773 353.257Z" fill="black"/>
<path d="M569.543 359.328C569.543 361.003 569.352 362.36 569.119 362.36C568.886 362.36 568.702 361.003 568.702 359.328C568.702 357.652 568.935 358.438 569.168 358.438C569.402 358.438 569.543 357.652 569.543 359.328Z" fill="#FFD037"/>
<path d="M571.863 361.329C570.39 362.127 569.107 362.611 568.996 362.409C568.886 362.206 569.991 361.39 571.452 360.568C572.912 359.745 572.348 360.353 572.458 360.568C572.569 360.782 573.336 360.525 571.863 361.329Z" fill="#FFD037"/>
<path d="M543.567 353.257C543.567 353.257 539.928 358.02 545.249 365.208C550.571 372.395 554.953 378.459 553.179 382.94C553.179 382.94 545.151 369.59 538.62 369.437C532.09 369.283 536.362 361.286 543.567 353.257Z" fill="#6C63FF"/>
<path opacity="0.1" d="M543.567 353.257C543.249 353.718 542.998 354.222 542.825 354.755C536.447 362.243 533.053 369.228 539.179 369.406C544.887 369.572 551.737 379.773 553.376 382.351C553.32 382.553 553.253 382.744 553.179 382.965C553.179 382.965 545.151 369.615 538.62 369.461C532.09 369.308 536.362 361.286 543.567 353.257Z" fill="black"/>
<path d="M536.816 359.328C536.816 361.003 537 362.36 537.233 362.36C537.466 362.36 537.65 361.003 537.65 359.328C537.65 357.652 537.417 358.438 537.184 358.438C536.951 358.438 536.816 357.652 536.816 359.328Z" fill="#FFD037"/>
<path d="M534.459 361.329C535.932 362.127 537.215 362.611 537.325 362.409C537.436 362.206 536.331 361.39 534.87 360.568C533.409 359.745 533.98 360.353 533.863 360.568C533.747 360.782 532.992 360.525 534.459 361.329Z" fill="#FFD037"/>
<path d="M572.747 376.526L572.569 378.011L572.311 380.11L572.207 380.982L571.949 383.087L571.838 383.959L571.587 386.058L568.671 409.934C568.413 412.064 564.927 413.727 560.729 413.727H545.593C541.395 413.727 537.914 412.064 537.657 409.934L534.741 386.058L534.483 383.959L534.379 383.087L534.115 380.982L534.011 380.11L533.759 378.011L533.575 376.526C533.428 375.298 535.312 374.298 537.687 374.298H568.634C571.01 374.298 572.9 375.317 572.747 376.526Z" fill="#444053"/>
<path d="M572.569 378.011L572.311 380.104H534.011L533.759 378.011H572.569Z" fill="#9D9CB5"/>
<path d="M572.207 380.982L571.949 383.081H534.379L534.121 380.982H572.207Z" fill="#9D9CB5"/>
<path d="M571.838 383.959L571.587 386.058H534.741L534.483 383.959H571.838Z" fill="#9D9CB5"/>
</g>
<defs>
<linearGradient id="paint0_linear" x1="439.672" y1="303.897" x2="533.581" y2="303.897" gradientUnits="userSpaceOnUse">
<stop stop-color="#808080" stop-opacity="0.25"/>
<stop offset="0.54" stop-color="#808080" stop-opacity="0.12"/>
<stop offset="1" stop-color="#808080" stop-opacity="0.1"/>
</linearGradient>
<clipPath id="clip0">
<rect width="645.21" height="427.955" fill="white"/>
</clipPath>
</defs>
</svg>
