<svg width="646" height="335" viewBox="0 0 646 335" fill="none" xmlns="http://www.w3.org/2000/svg">
<g clip-path="url(#clip0)">
<path d="M312.946 0.999988L261 184.695L586.641 276.781L638.587 93.0863L312.946 0.999988Z" fill="#3F3D56"/>
<path d="M315.244 14.283C316.733 14.283 317.941 13.0755 317.941 11.586C317.941 10.0965 316.733 8.88904 315.244 8.88904C313.754 8.88904 312.547 10.0965 312.547 11.586C312.547 13.0755 313.754 14.283 315.244 14.283Z" fill="#6C63FF"/>
<path d="M323.548 16.6315C325.038 16.6315 326.245 15.424 326.245 13.9345C326.245 12.445 325.038 11.2375 323.548 11.2375C322.059 11.2375 320.851 12.445 320.851 13.9345C320.851 15.424 322.059 16.6315 323.548 16.6315Z" fill="#6C63FF"/>
<path d="M331.853 18.9799C333.342 18.9799 334.55 17.7724 334.55 16.2829C334.55 14.7934 333.342 13.5859 331.853 13.5859C330.363 13.5859 329.156 14.7934 329.156 16.2829C329.156 17.7724 330.363 18.9799 331.853 18.9799Z" fill="#6C63FF"/>
<path d="M482.44 120.464C478.081 119.64 473.596 119.746 469.281 120.775C470.537 116.46 470.854 111.926 470.211 107.478C465.767 109.087 461.745 111.682 458.448 115.069C457.414 110.457 455.347 106.14 452.403 102.442C449.526 105.894 447.421 109.923 446.232 114.257C443.095 111.12 439.33 108.682 435.184 107.101C435.184 107.101 433.22 117.09 437.949 125.287C442.157 132.582 450.244 135.996 451.972 136.659L452.013 136.707L452.034 136.683C452.21 136.749 452.308 136.783 452.308 136.783C452.308 136.783 452.345 136.591 452.396 136.249C452.427 136.211 452.459 136.172 452.493 136.128C452.5 136.183 452.506 136.233 452.513 136.282C452.377 136.6 452.308 136.783 452.308 136.783C452.308 136.783 452.409 136.806 452.594 136.841L452.599 136.873L452.659 136.853C454.479 137.194 463.155 138.52 470.561 134.509C478.882 130.002 482.44 120.464 482.44 120.464Z" fill="#6C63FF"/>
<path d="M466.301 94.9477C470.174 94.9477 473.314 91.8083 473.314 87.9356C473.314 84.0629 470.174 80.9235 466.301 80.9235C462.429 80.9235 459.289 84.0629 459.289 87.9356C459.289 91.8083 462.429 94.9477 466.301 94.9477Z" fill="#6C63FF"/>
<path d="M554.347 178.978L343.616 119.387L342.32 123.971L553.05 183.563L554.347 178.978Z" fill="#6C63FF"/>
<path d="M393.215 158.076L356.882 147.802L346.607 184.135L382.94 194.409L393.215 158.076Z" fill="#6C63FF"/>
<path d="M460.69 177.157L424.357 166.883L414.083 203.216L450.416 213.49L460.69 177.157Z" fill="#6C63FF"/>
<path d="M528.165 196.238L491.832 185.964L481.558 222.297L517.891 232.571L528.165 196.238Z" fill="#6C63FF"/>
<path d="M376.214 200.355L349.224 192.722L348.343 195.837L375.334 203.469L376.214 200.355Z" fill="#6C63FF"/>
<path d="M443.689 219.436L416.699 211.803L415.819 214.917L442.809 222.55L443.689 219.436Z" fill="#6C63FF"/>
<path d="M511.164 238.517L484.174 230.884L483.294 233.998L510.284 241.631L511.164 238.517Z" fill="#6C63FF"/>
<path d="M191.509 268.347C291.201 268.347 372.018 265.36 372.018 261.674C372.018 257.988 291.201 255 191.509 255C91.8166 255 11 257.988 11 261.674C11 265.36 91.8166 268.347 191.509 268.347Z" fill="#D0CDE1"/>
<path d="M504.743 334.323C582.321 334.323 645.21 331.335 645.21 327.649C645.21 323.963 582.321 320.975 504.743 320.975C427.166 320.975 364.277 323.963 364.277 327.649C364.277 331.335 427.166 334.323 504.743 334.323Z" fill="#D0CDE1"/>
<path d="M431 277H447.718V293.517H463.011V277H479.729V327.017H463.012V310.268H447.719V327.017H431.001V277H431ZM501.712 293.587H486.997V277H533.158V293.587H518.433V327.017H501.716V293.587H501.712ZM540.483 277H557.915L568.637 294.575L579.35 277H596.788V327.017H580.139V302.226L568.637 320.009H568.349L556.84 302.226V327.017H540.483V277ZM605.108 277H621.831V310.485H645.341V327.017H605.107V277H605.108Z" fill="#3F3D56"/>
<path d="M72 206.216H88.7176V222.733H104.011V206.216H120.729V256.233H104.012V239.485H88.7186V256.233H72.001V206.216H72ZM142.712 222.803H127.997V206.216H174.158V222.803H159.433V256.233H142.716V222.803H142.712ZM181.483 206.216H198.915L209.637 223.791L220.35 206.216H237.788V256.233H221.139V231.442L209.637 249.226H209.349L197.84 231.442V256.233H181.483V206.216ZM246.108 206.216H262.831V239.701H286.341V256.233H246.107V206.216H246.108Z" fill="#3F3D56"/>
<path d="M301 206L291.768 206.216L291.767 212.216L291.768 231.442L311.5 237.216V246.216H291.767V256.017H324L332 256.233V231.442L311.5 225.216V216.216H332V206H301Z" fill="#3F3D56"/>
<path d="M52.1404 232.686L50.7688 248.237L61.7455 247.321V234.058L52.1404 232.686Z" fill="#FFB8B8"/>
<path d="M42.0784 232.686L43.4506 248.237L32.4739 247.321V234.058L42.0784 232.686Z" fill="#FFB8B8"/>
<path d="M70.893 113.311C70.893 113.311 74.552 135.265 74.552 138.467C74.552 141.668 73.1799 162.25 70.893 166.367C68.6062 170.483 68.1488 172.312 69.0635 174.142C69.9783 175.971 69.5209 175.514 69.0635 176.886C68.6062 178.258 67.6914 177.801 69.0635 179.63C69.6238 180.436 69.9242 181.393 69.9242 182.375C69.9242 183.356 69.6238 184.313 69.0635 185.119C68.1488 186.491 70.893 223.538 67.234 226.283C63.575 229.027 62.6603 238.174 62.6603 238.174L50.7686 236.802V226.74C50.7686 226.74 48.0243 219.422 49.8538 214.848C51.6833 210.274 52.5981 186.034 52.5981 186.034C52.5981 186.034 52.1407 183.747 52.5981 182.375C53.0554 181.003 52.5981 180.088 51.6833 179.63C50.7686 179.173 50.3112 177.344 50.3112 177.344L48.9391 143.955L43.4506 176.886C43.4506 176.886 48.9391 221.709 43.4506 227.655V238.174H31.5589L33.3884 226.74C33.3884 226.74 29.7294 216.22 31.5589 213.933C33.3884 211.647 26.0704 175.057 26.9851 173.685C27.8999 172.312 27.4425 171.855 26.9851 170.94C26.5278 170.026 25.1556 169.111 25.613 168.196C26.0704 167.281 25.613 165.452 25.613 165.452C25.613 165.452 16.9229 122.459 21.0393 118.342C25.1556 114.226 70.893 113.311 70.893 113.311Z" fill="#2F2E41"/>
<path d="M53.5127 242.291C53.5127 242.291 54.4275 237.904 61.7454 239.411C61.7454 239.411 63.5749 243.205 63.5749 245.035C63.5749 246.864 65.4044 259.213 65.4044 259.213C65.4044 259.213 72.7224 271.563 63.5749 271.563C54.4274 271.563 51.2258 268.361 50.7685 265.159C50.3111 261.958 51.2258 261.043 49.3963 259.671C47.5668 258.299 46.6521 258.299 47.1095 256.469C47.5668 254.64 48.4816 245.492 48.4816 245.492C48.4816 245.492 48.939 238.632 51.4545 240.461L53.9701 242.291" fill="#2F2E41"/>
<path d="M40.7062 242.291C40.7062 242.291 39.7915 237.904 32.4735 239.411C32.4735 239.411 30.644 243.205 30.644 245.035C30.644 246.864 28.8145 259.213 28.8145 259.213C28.8145 259.213 21.4965 271.563 30.644 271.563C39.7915 271.563 42.9931 268.361 43.4505 265.159C43.9079 261.958 42.9931 261.043 44.8226 259.671C46.6521 258.299 47.5669 258.299 47.1095 256.469C46.6521 254.64 45.7374 245.492 45.7374 245.492C45.7374 245.492 45.28 238.632 42.7644 240.461L40.2489 242.291" fill="#2F2E41"/>
<path d="M53.9702 29.1543C60.7904 29.1543 66.3193 23.6254 66.3193 16.8052C66.3193 9.98493 60.7904 4.45605 53.9702 4.45605C47.15 4.45605 41.6211 9.98493 41.6211 16.8052C41.6211 23.6254 47.15 29.1543 53.9702 29.1543Z" fill="#FFB8B8"/>
<path d="M43.9079 18.6348C43.9079 18.6348 38.8768 38.3018 37.962 38.7592C37.0473 39.2166 59.0012 41.0461 59.0012 41.0461C59.0012 41.0461 53.5127 24.1232 59.0012 21.379L43.9079 18.6348Z" fill="#FFB8B8"/>
<path d="M40.6949 30.6197L40.6944 30.6172L25.613 41.046L28.3573 122.916C28.3573 122.916 48.4817 120.629 53.0555 121.086C57.6292 121.544 72.2652 116.97 72.2652 116.97L65.8544 40.0404C65.7291 38.5372 65.0702 37.1284 63.9969 36.0686C62.9235 35.0088 61.5064 34.3679 60.0017 34.2618L57.2548 34.0681C57.2548 34.0681 54.5107 40.8622 46.2547 37.3571C44.8627 36.7515 43.6335 35.8256 42.6673 34.6548C41.7011 33.484 41.0253 32.1014 40.6949 30.6197V30.6197Z" fill="#D0CDE1"/>
<path d="M41.0595 29.8729L22.4113 38.7591L18.7523 91.3571C18.7523 91.3571 11.4343 122.916 17.3802 132.063C23.3261 141.211 33.3883 142.126 33.3883 142.126C33.3883 142.126 46.6521 89.5276 42.9931 71.6901C39.3341 53.8525 41.0595 29.8729 41.0595 29.8729Z" fill="#575A89"/>
<path d="M5.94575 109.195V116.055C5.94575 116.055 3.20151 131.149 11.8916 130.691C20.5817 130.234 16.4653 114.226 16.4653 114.226L13.7211 109.195H5.94575Z" fill="#FFB8B8"/>
<path d="M86.4436 122.916L85.5288 130.691C85.5288 130.691 90.1026 146.242 81.4124 146.699C72.7223 147.157 79.0302 130.787 79.0302 130.787L81.8698 122.001L86.4436 122.916Z" fill="#FFB8B8"/>
<path d="M56.9795 32.4696C65.3133 34.5223 73.0359 38.5368 79.504 44.1786L79.5831 44.2476L73.1799 78.0933L72.2651 90.4424C72.2651 90.4424 89.1879 150.816 69.5209 142.126C69.5209 142.126 52.598 89.5276 54.8849 65.2868C57.1718 41.046 56.9795 32.4696 56.9795 32.4696Z" fill="#575A89"/>
<path d="M73.6372 43.7903C74.0946 43.333 79.583 44.4259 79.583 44.4259C79.583 44.4259 89.6453 79.9229 89.6453 85.8687C89.6453 91.8146 91.0174 125.66 91.0174 125.66L78.9442 126.877L69.1719 79.8518L73.6372 43.7903Z" fill="#575A89"/>
<path d="M25.6129 38.7592H22.4113C22.4113 38.7592 13.2638 42.4182 12.8065 46.5345C12.3491 50.6509 0 92.2719 0 92.2719L3.20162 113.311L15.0933 111.482L17.3802 88.1556L29.2719 62.5426L25.6129 38.7592Z" fill="#575A89"/>
<path d="M51.5711 20.2517L52.0446 16.9512C52.1549 16.1819 52.6051 15.1703 53.3536 15.3796C53.9902 15.5575 55.3772 16.1025 55.6094 15.938C56.479 15.3219 57.795 16.3991 58.7095 15.8519C59.0926 15.6226 59.3425 15.1314 59.7878 15.0986C60.0866 15.1177 60.3681 15.2452 60.5795 15.4572C61.1731 15.9734 61.8726 16.3534 62.6287 16.5704C63.0081 16.6737 63.4082 16.6737 63.7875 16.5703C64.1668 16.4669 64.5116 16.2639 64.7861 15.9824C64.883 15.8324 65.0136 15.7072 65.1676 15.6167C65.3482 15.5646 65.541 15.5735 65.7161 15.6419L68.0526 16.2781C68.3963 15.0321 68.4669 13.7267 68.2596 12.4509C68.0522 11.1752 67.5719 9.95926 66.8515 8.88622C65.9036 7.5996 64.7545 6.47421 63.4483 5.55339C62.0014 4.45259 60.5081 3.4172 58.9685 2.44723C57.3363 1.29237 55.4835 0.486326 53.5259 0.0793906C51.5556 -0.219816 49.3493 0.315492 48.11 1.87621C47.527 1.4543 47.0888 0.862375 46.8555 0.181612C46.7166 0.308044 46.6071 0.463446 46.5347 0.636836C46.4624 0.810225 46.429 0.997377 46.4369 1.18509C46.4448 1.3728 46.4938 1.55648 46.5804 1.72318C46.6671 1.88988 46.7893 2.03553 46.9384 2.14985L44.9623 0.887966C44.4068 1.47123 45.4921 2.52888 45.0188 3.18062C44.8757 3.34182 44.692 3.46175 44.4868 3.52797C43.4139 3.94617 42.4305 4.56511 41.5894 5.35165C40.5244 6.5649 39.7447 8.00123 39.3074 9.5552C38.1299 12.9334 37.2741 16.8074 38.9471 19.9696C39.1368 20.3281 41.6404 26.2452 41.9739 26.4759C43.1015 27.2559 42.3675 25.3683 43.1754 26.4759C43.809 27.3445 43.6904 24.0201 44.632 24.7498C45.0011 25.014 45.4389 25.1654 45.8924 25.1858C46.3459 25.2062 46.7955 25.0947 47.1869 24.8647C47.5772 24.594 47.4515 23.0906 47.2408 21.7101C47.2005 21.4471 47.2254 21.1783 47.3131 20.9272C47.4009 20.676 47.5489 20.4503 47.7443 20.2696C47.9396 20.089 48.1762 19.9591 48.4335 19.8912C48.6907 19.8233 48.9606 19.8195 49.2196 19.8802C50.3924 20.1561 51.551 20.3918 51.5711 20.2517Z" fill="#2F2E41"/>
<path opacity="0.2" d="M74.781 85.1824L79.8117 126.804H76.6102L74.781 85.1824Z" fill="black"/>
<path opacity="0.2" d="M21.7252 69.1743L19.1815 85.1824L24.012 69.1743H22.6398H21.7252Z" fill="black"/>
</g>
<defs>
<clipPath id="clip0">
<rect width="645.21" height="334.323" fill="white"/>
</clipPath>
</defs>
</svg>
