<svg width="646" height="458" viewBox="0 0 646 458" fill="none" xmlns="http://www.w3.org/2000/svg">
<g clip-path="url(#clip0)">
<path d="M59.7414 409.091C92.6027 409.091 119.242 407.21 119.242 404.89C119.242 402.571 92.6027 400.69 59.7414 400.69C26.8802 400.69 0.240845 402.571 0.240845 404.89C0.240845 407.21 26.8802 409.091 59.7414 409.091Z" fill="#D0CDE1"/>
<path d="M240.343 457.391C325.782 457.391 395.044 454.1 395.044 450.041C395.044 445.982 325.782 442.691 240.343 442.691C154.904 442.691 85.6416 445.982 85.6416 450.041C85.6416 454.1 154.904 457.391 240.343 457.391Z" fill="#D0CDE1"/>
<path d="M320.844 152.889L323.644 147.989L309.644 145.188L308.244 152.189L310.344 157.789L320.844 152.889Z" fill="#6C63FF"/>
<path opacity="0.2" d="M320.844 152.889L323.644 147.989L309.644 145.188L308.244 152.189L310.344 157.789L320.844 152.889Z" fill="black"/>
<path d="M312.794 149.738C322.845 149.738 330.994 141.59 330.994 131.538C330.994 121.486 322.845 113.338 312.794 113.338C302.742 113.338 294.594 121.486 294.594 131.538C294.594 141.59 302.742 149.738 312.794 149.738Z" fill="#FFB8B8"/>
<path d="M297.394 131.538L282.694 156.039L304.394 168.639L315.594 142.738L297.394 131.538Z" fill="#FFB8B8"/>
<path d="M295.994 160.238L277.093 152.538C277.093 152.538 248.393 157.438 245.593 166.538C242.793 175.638 242.793 249.139 242.793 249.139C242.793 249.139 235.793 267.339 245.593 268.039C245.593 268.039 242.793 272.239 245.593 272.939C248.393 273.639 277.093 272.939 288.293 276.439C299.494 279.939 321.894 282.739 321.894 279.239V272.939C321.894 272.939 326.794 268.039 323.994 259.639C321.194 251.239 317.694 233.039 317.694 233.039C317.694 233.039 338.694 186.838 336.594 181.238C334.494 175.638 308.855 158.322 308.855 158.322L295.994 160.238Z" fill="#6C63FF"/>
<path d="M252.593 249.139L253.293 254.74L263.093 242.839H259.593L252.593 249.139Z" fill="#FFB8B8"/>
<path d="M295.994 160.238L275.693 155.338C275.693 155.338 271.493 151.838 271.493 147.638C271.493 143.438 277.793 137.138 281.994 132.938C282.359 132.563 282.797 132.266 283.281 132.065C283.764 131.864 284.284 131.763 284.808 131.769C288.966 131.734 294.006 137.187 294.006 137.187L288.413 146.518L288.161 146.931L295.994 160.238Z" fill="#6C63FF"/>
<path d="M311.641 151.879L323.644 147.988C323.644 147.988 327.494 163.038 323.294 163.738C319.094 164.438 295.994 162.338 295.994 162.338L311.641 151.879Z" fill="#6C63FF"/>
<path d="M246.993 269.439L237.893 321.24C237.893 321.24 234.393 327.54 235.793 330.34C237.193 333.14 237.893 333.14 235.793 334.54C233.693 335.94 230.893 334.54 231.593 338.04C232.013 340.115 232.247 342.223 232.293 344.34L212.693 411.541C212.693 411.541 200.093 417.141 209.193 420.641C218.293 424.141 227.393 426.941 229.493 423.441C231.593 419.941 229.493 415.741 229.493 415.741L261.693 338.74C261.693 338.74 266.593 331.74 266.593 327.54C266.593 323.34 282.693 293.239 282.693 293.239C282.693 293.239 283.393 323.34 284.093 325.44C284.794 327.54 282.693 331.74 282.693 334.54C282.693 337.34 281.293 337.34 282.693 338.74C284.093 340.14 284.093 356.24 284.093 356.24C284.093 356.24 275.693 418.541 280.593 419.241C285.494 419.941 299.494 418.541 299.494 415.741C299.494 412.941 297.394 412.241 297.394 412.241L306.494 359.04C306.494 359.04 305.794 355.54 307.194 352.74C308.594 349.94 308.594 349.94 308.594 348.54C308.594 347.14 307.894 346.44 308.594 345.74C309.051 345.136 309.297 344.398 309.294 343.64C309.294 343.64 307.894 339.44 308.594 338.74C309.294 338.04 324.694 285.539 319.794 279.239C314.894 272.939 246.993 269.439 246.993 269.439Z" fill="#2F2E41"/>
<path d="M281.293 417.141L276.393 428.341C276.393 428.341 265.193 440.941 273.593 443.741C281.993 446.541 284.793 445.841 284.793 445.841C284.793 445.841 288.293 446.541 288.293 447.941C288.293 449.341 316.294 459.841 318.394 450.741C320.494 441.641 296.693 424.841 296.693 424.841V416.441L281.293 417.141Z" fill="#2F2E41"/>
<path d="M227.299 422.325L228.359 434.504C228.359 434.504 234.94 450.025 226.085 449.991C217.231 449.957 214.802 448.398 214.802 448.398C214.802 448.398 211.262 447.941 210.814 449.268C210.366 450.594 180.478 451.586 181.4 442.292C182.321 432.999 210.245 424.694 210.245 424.694L212.931 416.736L227.299 422.325Z" fill="#2F2E41"/>
<path d="M295.067 136.52C296.191 136.445 296.941 135.219 297.252 134.054C297.563 132.888 297.642 131.61 298.277 130.608C300.017 127.863 304.542 128.972 306.38 126.301C307.51 124.659 307.273 121.984 308.905 120.939C309.935 120.279 311.248 120.619 312.383 121.034C316.783 122.653 320.845 125.072 324.365 128.169L325.826 126.979L327.652 130.629C328.36 129.776 329.725 130.438 330.319 131.386C330.913 132.335 331.201 133.548 332.048 134.239C333.398 135.341 335.507 134.408 336.325 132.811C337.143 131.213 337.008 129.26 336.724 127.462C336.018 122.956 334.513 118.613 332.28 114.636L333.951 113.634L331.791 113.326L332.618 111.45L330.356 111.424L331.249 109.821C328.208 110.865 325.065 108.953 322.161 107.528C317.302 105.145 311.837 104.001 306.561 104.886C303.858 105.325 301.277 106.322 298.98 107.814C296.684 109.305 294.723 111.259 293.224 113.55C290.924 117.166 289.596 122.417 290.745 126.748C291.79 130.684 296.353 131.297 295.067 136.52Z" fill="#2F2E41"/>
<path d="M249.793 163.738C249.793 163.738 245.593 163.038 242.793 168.638C239.993 174.238 218.993 219.039 229.493 233.039C239.993 247.039 249.793 251.239 249.793 251.239L251.893 251.939L262.393 240.739L258.893 235.839C258.893 235.839 258.893 230.939 256.093 230.239C253.293 229.539 253.293 231.639 252.593 228.839C251.893 226.039 255.393 228.139 251.893 225.339C248.393 222.539 251.193 221.139 251.193 221.139L249.793 163.738Z" fill="#6C63FF"/>
<path d="M323.994 257.189L323.294 262.79L313.494 250.889H316.994L323.994 257.189Z" fill="#FFB8B8"/>
<path d="M322.944 178.789C322.944 178.789 332.744 173.888 335.544 179.489C338.344 185.089 357.594 227.089 347.094 241.089C336.594 255.089 326.794 259.289 326.794 259.289L324.694 259.989L314.194 248.789L317.694 243.889C317.694 243.889 317.694 238.989 320.494 238.289C323.294 237.589 323.294 239.689 323.994 236.889C324.694 234.089 321.194 236.189 324.694 233.389C328.194 230.589 325.394 229.189 325.394 229.189L322.944 178.789Z" fill="#6C63FF"/>
<path opacity="0.2" d="M256.443 191.389L248.743 222.189L257.843 233.389L253.643 219.389L256.443 191.389Z" fill="black"/>
<path opacity="0.2" d="M294.005 137.187L288.412 146.518C284.898 145.3 284.604 137.145 284.807 131.769C288.965 131.734 294.005 137.187 294.005 137.187Z" fill="black"/>
<path d="M175.077 430.977C175.199 443.433 167.836 447.854 158.703 447.943C158.49 447.945 158.279 447.945 158.069 447.942C157.646 447.937 157.227 447.922 156.812 447.897C148.563 447.393 142.113 442.884 142 431.3C141.883 419.312 157.057 404.034 158.195 402.904L158.197 402.903C158.24 402.86 158.263 402.838 158.263 402.838C158.263 402.838 174.956 418.522 175.077 430.977Z" fill="#D0CDE1"/>
<path d="M151.284 370.894C151.37 379.686 146.173 382.807 139.726 382.869C139.576 382.871 139.427 382.871 139.279 382.869C138.98 382.865 138.684 382.855 138.391 382.837C132.568 382.481 128.016 379.298 127.936 371.121C127.853 362.659 138.564 351.875 139.368 351.077L139.369 351.076C139.4 351.046 139.415 351.031 139.415 351.031C139.415 351.031 151.199 362.102 151.284 370.894Z" fill="#D0CDE1"/>
<path d="M139.542 384.597C162.738 384.597 181.543 383.27 181.543 381.633C181.543 379.995 162.738 378.668 139.542 378.668C116.346 378.668 97.5417 379.995 97.5417 381.633C97.5417 383.27 116.346 384.597 139.542 384.597Z" fill="#D0CDE1"/>
<path d="M645.21 195.869H367.481V337.271H645.21V195.869Z" fill="#3F3D56"/>
<path d="M445.992 243.482H417.865V245.826H445.992V243.482Z" fill="#6C63FF"/>
<path d="M483.493 243.482H455.367V245.826H483.493V243.482Z" fill="#6C63FF"/>
<path d="M537.987 265.163H509.861V267.507H537.987V265.163Z" fill="#6C63FF"/>
<path d="M576.075 265.163H547.949V267.507H576.075V265.163Z" fill="#6C63FF"/>
<path d="M576.075 243.482H493.454V245.826H576.075V243.482Z" fill="#6C63FF"/>
<path d="M500.486 265.163H417.865V267.507H500.486V265.163Z" fill="#6C63FF"/>
<path d="M500.486 286.844H417.865V289.187H500.486V286.844Z" fill="#6C63FF"/>
<path d="M576.075 286.844H518.651V289.187H576.075V286.844Z" fill="#6C63FF"/>
<path d="M409.96 253.377L400.065 243.483L409.96 233.587L411.94 235.567L404.024 243.483L411.94 251.398L409.96 253.377Z" fill="#6C63FF"/>
<path d="M602.731 299.083L600.751 297.103L608.667 289.187L600.751 281.272L602.731 279.292L612.626 289.187L602.731 299.083Z" fill="#6C63FF"/>
<path d="M592.314 278.82L586.454 298.156L589.133 298.969L594.993 279.632L592.314 278.82Z" fill="#6C63FF"/>
<path d="M64.9684 386.181L116.816 309.077L65.0744 394.475L65.1826 403.152C61.3975 403.18 57.6492 403.117 53.9376 402.962L56.5091 291.437L56.4387 290.577L56.5336 290.411L56.7797 279.872L0 197.435L56.7127 271.985L56.914 274.213L58.8563 189.951L9.81395 104.482L58.996 175.149L58.4826 0.581007L58.4837 0L58.5004 0.57142L61.756 138.154L106.452 82.2681L61.9023 150.007L62.8778 225.377L104.008 151.819L63.029 236.457L63.572 278.367L123.386 175.901L63.7538 292.987L64.9684 386.181Z" fill="#D0CDE1"/>
</g>
<defs>
<clipPath id="clip0">
<rect width="645.21" height="457.391" fill="white"/>
</clipPath>
</defs>
</svg>
