<svg width="646" height="379" viewBox="0 0 646 379" fill="none" xmlns="http://www.w3.org/2000/svg">
<g clip-path="url(#clip0)">
<path opacity="0.1" d="M627.931 351.925C627.325 352.369 626.702 352.795 626.074 353.215C623.757 354.769 621.338 356.165 618.834 357.394C605.677 363.955 589.469 367.158 573.675 369.334C538.258 374.224 502.096 375.172 466.084 376.103C368.796 378.633 271.249 381.151 174.207 375.329C135.869 373.03 96.6716 369.16 61.9221 357.382C56.9456 355.696 52.0626 353.838 47.273 351.808C37.593 347.686 28.2943 342.677 20.5603 336.71C13.2694 331.102 7.40309 324.652 3.88102 317.327C-3.46595 302.061 0.420656 284.917 8.80518 269.959C12.3098 263.889 16.2458 258.079 20.5828 252.573C27.0436 244.149 34.1719 235.989 40.6888 227.577C63.8626 197.617 78.9828 159.777 57.5924 129.088C51.4232 120.272 42.5564 112.532 37.5481 103.329C31.149 91.551 31.6481 78.4779 33.6839 65.7525C33.9419 64.1485 34.2448 62.5557 34.5196 60.9629C38.0136 42.1356 44.5193 21.8445 64.659 10.0894C85.5783 -2.12569 115.275 -1.50877 141.247 2.86015C181.627 9.6575 218.878 23.8523 256.494 36.6731C294.109 49.4938 333.508 61.2041 374.875 62.4716C411.397 63.5933 454.004 55.2536 478.243 33.6109C501.798 12.5907 546.048 10.9923 577.96 23.6897C599.833 32.4051 616.181 48.1029 623.074 65.7525C624.467 69.2863 625.473 72.9607 626.074 76.7113C626.634 80.1263 626.822 83.5919 626.635 87.0475C626.54 88.73 626.355 90.4406 626.074 92.095C620.746 126.94 582.379 154.421 559.06 185.547C547.664 200.752 539.616 219.013 547.451 235.406C559.402 260.386 600.966 269.264 626.074 287.861C630.765 291.208 634.925 295.243 638.413 299.829C650.555 316.385 646.063 338.729 627.931 351.925Z" fill="#6C63FF"/>
<path opacity="0.1" d="M301.557 370.074C385.076 370.074 452.781 367.774 452.781 364.937C452.781 362.1 385.076 359.8 301.557 359.8C218.038 359.8 150.333 362.1 150.333 364.937C150.333 367.774 218.038 370.074 301.557 370.074Z" fill="#6C63FF"/>
<path d="M421.705 361.516C421.705 361.516 454.234 320.311 451.715 279.353C450.656 262.158 454.89 245.041 464.351 230.644C468.852 223.824 473.969 217.432 479.64 211.548" stroke="#535461" stroke-width="2" stroke-miterlimit="10"/>
<path d="M478.198 185.721C475.899 191.453 479.595 212.226 479.595 212.226C479.595 212.226 496.639 199.781 498.938 194.055C499.485 192.693 499.759 191.236 499.743 189.768C499.727 188.299 499.422 186.849 498.846 185.498C498.269 184.148 497.432 182.924 496.383 181.897C495.333 180.87 494.092 180.06 492.73 179.513C491.367 178.966 489.91 178.692 488.442 178.708C486.974 178.724 485.523 179.029 484.172 179.605C482.822 180.182 481.598 181.019 480.571 182.068C479.544 183.117 478.734 184.359 478.187 185.721H478.198Z" fill="#6C63FF"/>
<path d="M448.311 210.561C449.495 216.618 463.891 232.046 463.891 232.046C463.891 232.046 471.434 212.338 470.251 206.281C469.654 203.402 467.945 200.873 465.496 199.245C463.046 197.616 460.054 197.019 457.167 197.582C454.28 198.145 451.732 199.823 450.074 202.253C448.416 204.682 447.783 207.667 448.311 210.561V210.561Z" fill="#6C63FF"/>
<path d="M427.285 265.074C431.363 269.707 451.575 275.73 451.575 275.73C451.575 275.73 448.137 254.912 444.06 250.279C443.09 249.178 441.913 248.278 440.596 247.632C439.279 246.985 437.847 246.604 436.383 246.511C434.918 246.418 433.45 246.614 432.061 247.088C430.672 247.563 429.391 248.306 428.289 249.275C427.188 250.245 426.288 251.422 425.642 252.739C424.995 254.057 424.614 255.488 424.521 256.953C424.428 258.417 424.624 259.886 425.098 261.274C425.573 262.663 426.316 263.945 427.285 265.046V265.074Z" fill="#6C63FF"/>
<path d="M420.656 309.902C423.892 315.157 442.798 324.54 442.798 324.54C442.798 324.54 442.927 303.436 439.691 298.18C438.927 296.919 437.921 295.821 436.731 294.95C435.54 294.08 434.19 293.453 432.756 293.106C431.323 292.76 429.835 292.701 428.378 292.932C426.922 293.163 425.525 293.68 424.27 294.454C423.014 295.227 421.923 296.241 421.061 297.438C420.199 298.634 419.583 299.989 419.247 301.425C418.911 302.862 418.862 304.35 419.104 305.805C419.346 307.259 419.874 308.652 420.656 309.902Z" fill="#6C63FF"/>
<path d="M485.248 241.906C479.533 244.245 458.737 240.689 458.737 240.689C458.737 240.689 471.076 223.561 476.774 221.222C479.506 220.151 482.55 220.198 485.248 221.352C487.947 222.507 490.083 224.676 491.195 227.392C492.308 230.107 492.308 233.152 491.195 235.867C490.082 238.583 487.946 240.752 485.248 241.906V241.906Z" fill="#6C63FF"/>
<path d="M476.835 294.232C470.666 294.759 451.9 285.141 451.9 285.141C451.9 285.141 468.787 272.488 474.934 271.961C476.41 271.81 477.901 271.955 479.321 272.386C480.74 272.818 482.059 273.527 483.202 274.474C484.344 275.42 485.287 276.585 485.975 277.899C486.662 279.214 487.081 280.652 487.208 282.13C487.334 283.608 487.165 285.097 486.71 286.509C486.255 287.921 485.523 289.228 484.558 290.355C483.592 291.481 482.412 292.404 481.086 293.07C479.76 293.736 478.315 294.131 476.835 294.232V294.232Z" fill="#6C63FF"/>
<path d="M461.648 343.973C455.675 345.526 435.541 339.223 435.541 339.223C435.541 339.223 450.044 323.901 456.017 322.341C458.855 321.688 461.835 322.167 464.325 323.677C466.814 325.187 468.616 327.61 469.347 330.428C470.078 333.247 469.68 336.239 468.238 338.769C466.796 341.299 464.423 343.166 461.625 343.973H461.648Z" fill="#6C63FF"/>
<path opacity="0.25" d="M478.198 185.721C475.899 191.453 479.595 212.226 479.595 212.226C479.595 212.226 496.639 199.781 498.938 194.055C499.485 192.693 499.759 191.236 499.743 189.768C499.727 188.299 499.422 186.849 498.846 185.498C498.269 184.148 497.432 182.924 496.383 181.897C495.333 180.87 494.092 180.06 492.73 179.513C491.367 178.966 489.91 178.692 488.442 178.708C486.974 178.724 485.523 179.029 484.172 179.605C482.822 180.182 481.598 181.019 480.571 182.068C479.544 183.117 478.734 184.359 478.187 185.721H478.198Z" fill="black"/>
<path opacity="0.25" d="M448.311 210.561C449.495 216.618 463.891 232.046 463.891 232.046C463.891 232.046 471.434 212.338 470.251 206.281C469.654 203.402 467.945 200.873 465.496 199.245C463.046 197.616 460.054 197.019 457.167 197.582C454.28 198.145 451.732 199.823 450.074 202.253C448.416 204.682 447.783 207.667 448.311 210.561V210.561Z" fill="black"/>
<path opacity="0.25" d="M427.285 265.074C431.363 269.707 451.575 275.73 451.575 275.73C451.575 275.73 448.137 254.912 444.06 250.279C443.09 249.178 441.913 248.278 440.596 247.632C439.279 246.985 437.847 246.604 436.383 246.511C434.918 246.418 433.45 246.614 432.061 247.088C430.672 247.563 429.391 248.306 428.289 249.275C427.188 250.245 426.288 251.422 425.642 252.739C424.995 254.057 424.614 255.488 424.521 256.953C424.428 258.417 424.624 259.886 425.098 261.274C425.573 262.663 426.316 263.945 427.285 265.046V265.074Z" fill="black"/>
<path opacity="0.25" d="M420.656 309.902C423.892 315.157 442.798 324.54 442.798 324.54C442.798 324.54 442.927 303.436 439.691 298.18C438.927 296.919 437.921 295.821 436.731 294.95C435.54 294.08 434.19 293.453 432.756 293.106C431.323 292.76 429.835 292.701 428.378 292.932C426.922 293.163 425.525 293.68 424.27 294.454C423.014 295.227 421.923 296.241 421.061 297.438C420.199 298.634 419.583 299.989 419.247 301.425C418.911 302.862 418.862 304.35 419.104 305.805C419.346 307.259 419.874 308.652 420.656 309.902Z" fill="black"/>
<path opacity="0.25" d="M485.248 241.906C479.533 244.245 458.737 240.689 458.737 240.689C458.737 240.689 471.076 223.561 476.774 221.222C479.506 220.151 482.55 220.198 485.248 221.352C487.947 222.507 490.083 224.676 491.195 227.392C492.308 230.107 492.308 233.152 491.195 235.867C490.082 238.583 487.946 240.752 485.248 241.906V241.906Z" fill="black"/>
<path opacity="0.25" d="M476.835 294.232C470.666 294.759 451.9 285.141 451.9 285.141C451.9 285.141 468.787 272.488 474.934 271.961C476.41 271.81 477.901 271.955 479.321 272.386C480.74 272.818 482.059 273.527 483.202 274.474C484.344 275.42 485.287 276.585 485.975 277.899C486.662 279.214 487.081 280.652 487.208 282.13C487.334 283.608 487.165 285.097 486.71 286.509C486.255 287.921 485.523 289.228 484.558 290.355C483.592 291.481 482.412 292.404 481.086 293.07C479.76 293.736 478.315 294.131 476.835 294.232V294.232Z" fill="black"/>
<path opacity="0.25" d="M461.648 343.973C455.675 345.526 435.541 339.223 435.541 339.223C435.541 339.223 450.044 323.901 456.017 322.341C458.855 321.688 461.835 322.167 464.325 323.677C466.814 325.187 468.616 327.61 469.347 330.428C470.078 333.247 469.68 336.239 468.238 338.769C466.796 341.299 464.423 343.166 461.625 343.973H461.648Z" fill="black"/>
<path d="M421.985 359.794C421.985 359.794 468.423 335.313 482.713 296.845C488.714 280.693 499.538 266.762 514.002 257.435C520.883 253.024 528.154 249.253 535.723 246.168" stroke="#535461" stroke-width="2" stroke-miterlimit="10"/>
<path d="M544.865 221.968C540.445 226.27 535.404 246.763 535.404 246.763C535.404 246.763 556.026 242.276 560.451 237.991C562.529 235.914 563.706 233.103 563.727 230.164C563.747 227.226 562.61 224.398 560.562 222.292C558.513 220.185 555.717 218.971 552.78 218.91C549.842 218.85 546.999 219.948 544.865 221.968V221.968Z" fill="#6C63FF"/>
<path d="M507.48 232.574C506.106 238.591 513.015 258.529 513.015 258.529C513.015 258.529 527.894 243.572 529.279 237.554C529.64 236.111 529.709 234.611 529.482 233.142C529.256 231.673 528.739 230.263 527.961 228.996C527.183 227.729 526.16 226.63 524.952 225.763C523.744 224.896 522.375 224.279 520.926 223.948C519.476 223.617 517.976 223.578 516.511 223.834C515.046 224.09 513.648 224.635 512.396 225.439C511.145 226.242 510.067 227.287 509.225 228.512C508.382 229.737 507.793 231.118 507.491 232.574H507.48Z" fill="#6C63FF"/>
<path d="M466.179 273.891C468.03 279.779 484.059 293.52 484.059 293.52C484.059 293.52 489.353 273.094 487.502 267.205C487.086 265.776 486.389 264.443 485.451 263.287C484.512 262.13 483.352 261.173 482.039 260.471C480.726 259.769 479.285 259.336 477.802 259.199C476.32 259.061 474.824 259.221 473.404 259.67C471.984 260.118 470.668 260.846 469.533 261.81C468.398 262.774 467.467 263.956 466.795 265.285C466.123 266.614 465.724 268.063 465.62 269.549C465.516 271.035 465.71 272.526 466.191 273.935L466.179 273.891Z" fill="#6C63FF"/>
<path d="M441.94 312.19C442.77 318.303 456.247 334.539 456.247 334.539C456.247 334.539 464.917 315.303 464.099 309.184C463.901 307.729 463.419 306.328 462.68 305.06C461.941 303.791 460.96 302.681 459.792 301.792C458.623 300.903 457.292 300.253 455.872 299.879C454.453 299.504 452.974 299.413 451.519 299.611C450.064 299.808 448.663 300.29 447.395 301.029C446.126 301.768 445.016 302.749 444.127 303.918C443.238 305.086 442.588 306.417 442.213 307.837C441.839 309.256 441.748 310.736 441.946 312.19H441.94Z" fill="#6C63FF"/>
<path d="M528.516 276.184C522.347 276.01 504.771 264.328 504.771 264.328C504.771 264.328 522.981 253.672 529.15 253.841C532.085 253.965 534.852 255.24 536.854 257.389C538.856 259.538 539.932 262.389 539.848 265.325C539.765 268.261 538.53 271.046 536.409 273.078C534.288 275.11 531.453 276.226 528.516 276.184V276.184Z" fill="#6C63FF"/>
<path d="M499.622 320.614C493.789 318.601 480.514 302.202 480.514 302.202C480.514 302.202 501.075 297.474 506.913 299.487C509.653 300.502 511.886 302.548 513.135 305.189C514.385 307.829 514.551 310.854 513.598 313.616C512.645 316.377 510.649 318.656 508.037 319.964C505.425 321.272 502.404 321.505 499.622 320.614V320.614Z" fill="#6C63FF"/>
<path d="M465.619 359.934C459.528 358.936 443.667 345.016 443.667 345.016C443.667 345.016 463.14 336.878 469.23 337.876C472.113 338.401 474.675 340.037 476.364 342.431C478.052 344.826 478.733 347.788 478.26 350.679C477.786 353.571 476.196 356.161 473.832 357.892C471.468 359.623 468.518 360.356 465.619 359.934V359.934Z" fill="#6C63FF"/>
<path d="M426.057 363.215H421.082L384.695 175.374L380.029 363.215H374.746L368.835 175.688L333.379 363.215H327.781L351.881 170.147L352.666 163.871L399.939 158.583L401.408 170.147L426.057 363.215Z" fill="#464353"/>
<path d="M325.639 120.928H295.55V139.587H325.639V120.928Z" fill="#464353"/>
<path d="M470.133 112.768L488.327 105.421H492.314C492.896 105.421 493.454 105.652 493.865 106.063C494.276 106.474 494.507 107.032 494.507 107.614V158.852C494.507 159.433 494.276 159.991 493.865 160.402C493.454 160.814 492.896 161.045 492.314 161.045H488.327L470.133 153.468V112.768Z" fill="#464353"/>
<path d="M470.133 115.101H432.933V151.134H470.133V115.101Z" fill="#464353"/>
<path d="M392.306 47.4187H368.358V51.7708H392.306V47.4187Z" fill="#514E7F"/>
<path d="M408.441 53.0552H341.034V102.269H408.441V53.0552Z" fill="#514E7F"/>
<path opacity="0.1" d="M408.441 96.4417H341.034V102.274H408.441V96.4417Z" fill="black"/>
<path opacity="0.1" d="M433.864 115.101H432.355V151.134H433.864V115.101Z" fill="black"/>
<path opacity="0.1" d="M325.639 120.928H315.376V139.587H325.639V120.928Z" fill="black"/>
<path opacity="0.1" d="M401.408 170.147H351.881L352.666 163.871L399.939 158.583L401.408 170.147Z" fill="black"/>
<path d="M426.926 97.3726H322.308C318.993 97.3726 316.307 100.059 316.307 103.374V163.209C316.307 166.524 318.993 169.21 322.308 169.21H426.926C430.241 169.21 432.927 166.524 432.927 163.209V103.374C432.927 100.059 430.241 97.3726 426.926 97.3726Z" fill="#514E7F"/>
<path d="M469.78 112.768H470.133V153.468H469.78C469.008 153.468 468.268 153.161 467.722 152.615C467.176 152.069 466.869 151.329 466.869 150.557V115.678C466.869 114.906 467.176 114.166 467.722 113.62C468.268 113.074 469.008 112.768 469.78 112.768Z" fill="#514E7F"/>
<path d="M488.327 105.438H492.101C492.739 105.438 493.351 105.691 493.803 106.142C494.254 106.593 494.507 107.205 494.507 107.843V158.667C494.507 159.305 494.254 159.917 493.803 160.368C493.351 160.819 492.739 161.073 492.101 161.073H488.327V105.438Z" fill="#514E7F"/>
<path opacity="0.1" d="M300.917 120.928H295.55V139.587H300.917V120.928Z" fill="black"/>
<path d="M295.943 115.101H293.526C291.295 115.101 289.488 116.908 289.488 119.139V142.784C289.488 145.014 291.295 146.822 293.526 146.822H295.943C298.173 146.822 299.981 145.014 299.981 142.784V119.139C299.981 116.908 298.173 115.101 295.943 115.101Z" fill="#514E7F"/>
<path d="M341.034 86.6439C359.585 86.6439 374.623 71.6058 374.623 53.0554C374.623 34.5049 359.585 19.4668 341.034 19.4668C322.484 19.4668 307.446 34.5049 307.446 53.0554C307.446 71.6058 322.484 86.6439 341.034 86.6439Z" fill="#464353"/>
<path d="M341.034 78.2482C354.948 78.2482 366.227 66.969 366.227 53.0554C366.227 39.1418 354.948 27.8625 341.034 27.8625C327.12 27.8625 315.841 39.1418 315.841 53.0554C315.841 66.969 327.12 78.2482 341.034 78.2482Z" fill="#6C63FF"/>
<path d="M403.31 78.2482C416.836 78.2482 427.801 67.2829 427.801 53.7564C427.801 40.23 416.836 29.2646 403.31 29.2646C389.783 29.2646 378.818 40.23 378.818 53.7564C378.818 67.2829 389.783 78.2482 403.31 78.2482Z" fill="#464353"/>
<path d="M403.309 72.1238C413.454 72.1238 421.677 63.9004 421.677 53.7563C421.677 43.6123 413.454 35.3889 403.309 35.3889C393.165 35.3889 384.942 43.6123 384.942 53.7563C384.942 63.9004 393.165 72.1238 403.309 72.1238Z" fill="#6C63FF"/>
<path d="M401.408 111.287C403.189 111.287 404.633 109.843 404.633 108.062C404.633 106.281 403.189 104.837 401.408 104.837C399.627 104.837 398.183 106.281 398.183 108.062C398.183 109.843 399.627 111.287 401.408 111.287Z" fill="#6C63FF"/>
<path opacity="0.5" d="M411.666 111.287C413.447 111.287 414.891 109.843 414.891 108.062C414.891 106.281 413.447 104.837 411.666 104.837C409.885 104.837 408.441 106.281 408.441 108.062C408.441 109.843 409.885 111.287 411.666 111.287Z" fill="#6C63FF"/>
<path opacity="0.1" d="M319.958 102.095C319.958 102.095 313.789 109.352 314.91 113.312L319.958 102.095Z" fill="black"/>
<path opacity="0.1" d="M336.065 105.651C336.065 105.651 326.806 113.873 328.163 114.809L336.065 105.651Z" fill="black"/>
<path opacity="0.1" d="M341.831 115.751C341.831 115.751 340.894 121.158 342.391 121.36L341.831 115.751Z" fill="black"/>
<path d="M94.131 333.132C94.131 333.132 70.9348 331.73 73.6661 347.988C73.6661 347.988 73.1052 350.86 75.73 352.167C75.73 352.167 75.7692 350.961 78.1079 351.37C78.9397 351.509 79.785 351.549 80.6261 351.488C81.7643 351.411 82.8467 350.966 83.7107 350.221V350.221C83.7107 350.221 90.2332 347.523 92.7682 336.867C92.7682 336.867 94.6414 334.54 94.5685 333.945L90.6426 335.628C90.6426 335.628 91.983 338.432 90.9287 340.799C90.9287 340.799 90.7997 335.751 90.0481 335.846C89.8967 335.874 88.0123 336.828 88.0123 336.828C88.0123 336.828 90.3173 341.746 88.5731 345.324C88.5731 345.324 89.2349 339.262 87.2888 337.181L84.5351 338.791C84.5351 338.791 87.2271 343.872 85.3988 348.022C85.3988 348.022 85.8699 341.662 83.9574 339.183L81.4561 341.129C81.4561 341.129 83.9855 346.138 82.4432 349.581C82.4432 349.581 82.2413 342.173 80.9177 341.617C80.9177 341.617 78.7304 343.541 78.3995 344.332C78.3995 344.332 80.1269 347.972 79.0557 349.89C79.0557 349.89 78.3995 344.954 77.8555 344.932C77.8555 344.932 75.6795 348.202 75.4551 350.439C75.4551 350.439 75.5505 347.108 77.3283 344.618C76.0737 344.858 74.9162 345.458 73.997 346.345C73.997 346.345 74.3335 344.035 77.8667 343.833C77.8667 343.833 79.667 341.354 80.1494 341.202C80.1494 341.202 76.6329 340.911 74.5073 341.853C74.5073 341.853 76.3805 339.677 80.7887 340.664L83.2564 338.651C83.2564 338.651 78.6351 338.022 76.6722 338.718C76.6722 338.718 78.9155 336.789 83.9238 338.196L86.6046 336.592C86.6046 336.592 82.6787 335.74 80.312 336.031C80.312 336.031 82.7909 334.697 87.3898 336.144L89.3134 335.28C89.3134 335.28 86.4251 334.719 85.5783 334.624C84.7314 334.528 84.6865 334.298 84.6865 334.298C86.5156 333.996 88.3926 334.206 90.1098 334.904C90.1098 334.904 94.2039 333.384 94.131 333.132Z" fill="#6C63FF"/>
<path opacity="0.1" d="M78.1528 356.362C87.222 356.362 94.5741 355.119 94.5741 353.586C94.5741 352.053 87.222 350.81 78.1528 350.81C69.0835 350.81 61.7314 352.053 61.7314 353.586C61.7314 355.119 69.0835 356.362 78.1528 356.362Z" fill="#6C63FF"/>
<path d="M461.008 363.423H35.8936V365.666H461.008V363.423Z" fill="#3F3D56"/>
<path d="M300.609 69.6761C300.609 69.6761 316.55 52.0001 319.86 58.7362C323.17 65.4723 303.659 75.713 303.659 75.713L300.609 69.6761Z" fill="#A0616A"/>
<path d="M308.461 77.6384C308.461 77.6384 301.327 80.2623 299.26 83.449C297.194 86.6433 290.318 89.9745 290.318 89.9745L289.718 90.332L283.23 94.2032L274.729 99.2685L247.819 115.316L212.301 129.554C212.028 124.587 211.762 119.621 211.511 114.921C211.435 113.514 211.42 112.114 211.45 110.715C211.899 110.578 212.355 110.456 212.818 110.357C223.325 108.114 227.792 104.851 227.792 104.851L248.335 92.4463C248.335 92.4463 264.465 82.1561 274.698 77.3266C276.134 76.6421 277.456 76.0717 278.596 75.6534C287.864 72.2461 302.846 66.7397 302.846 66.7397L303.021 67.082L306.728 74.2692L308.461 77.6384Z" fill="#D0CDE1"/>
<path opacity="0.1" d="M308.461 77.6384C308.461 77.6384 301.327 80.2623 299.26 83.449C297.194 86.6433 290.318 89.9745 290.318 89.9745L289.718 90.332L283.23 94.2032L274.729 99.2685L247.819 115.316L212.301 129.554C212.028 124.587 211.762 119.621 211.511 114.921C211.435 113.514 211.42 112.114 211.45 110.715C211.899 110.578 212.355 110.456 212.818 110.357C223.325 108.114 227.792 104.851 227.792 104.851L248.335 92.4463C248.335 92.4463 264.465 82.1561 274.698 77.3266C276.134 76.6421 277.456 76.0717 278.596 75.6534C287.864 72.2461 302.846 66.7397 302.846 66.7397L303.021 67.082L306.728 74.2692L308.461 77.6384Z" fill="black"/>
<path d="M255.181 339.485V355.01H267.52L265.977 338.746L255.181 339.485Z" fill="#A0616A"/>
<path d="M207.51 338.746L203.584 357.052L219.288 357.814V338.746H207.51Z" fill="#A0616A"/>
<path d="M213.883 193.551C213.883 193.551 210.062 192.024 209.298 205.766C208.534 219.508 207.769 266.842 207.769 266.842C207.769 266.842 200.127 308.831 203.184 321.046C206.241 333.261 206.241 341.659 206.241 341.659H219.997L220.761 334.024L221.525 313.411C221.525 313.411 229.167 294.325 226.875 276.766L245.216 221.035L254.386 280.584C254.386 280.584 250.565 295.089 251.33 310.358C252.094 325.627 252.094 345.476 252.094 345.476L267.378 343.949L279.605 272.186C279.605 272.186 286.483 200.422 279.605 196.605C272.727 192.788 213.883 193.551 213.883 193.551Z" fill="#2F2E41"/>
<path d="M259.945 349.818C259.945 349.818 253.048 340.569 249.982 347.506C246.917 354.442 240.02 363.691 245.385 368.315C250.749 372.94 257.646 374.481 259.945 372.94C262.244 371.398 285.999 359.067 285.999 359.067C285.999 359.067 290.597 345.964 281.402 345.194C272.206 344.423 269.14 342.111 269.14 342.111L259.945 349.818Z" fill="#2F2E41"/>
<path d="M207.212 352.299C207.212 352.299 207.212 344.759 204.101 347.021C200.989 349.283 198.656 359.085 198.656 359.085C198.656 359.085 179.989 373.411 197.878 373.411C215.767 373.411 227.434 376.427 225.879 369.641C224.323 362.855 221.99 351.545 221.99 351.545C221.99 351.545 214.212 341.743 207.212 352.299Z" fill="#2F2E41"/>
<path d="M255.181 61.1314C265.712 61.1314 274.25 52.4686 274.25 41.7825C274.25 31.0964 265.712 22.4336 255.181 22.4336C244.65 22.4336 236.113 31.0964 236.113 41.7825C236.113 52.4686 244.65 61.1314 255.181 61.1314Z" fill="#A0616A"/>
<path d="M240.621 48.2319C240.621 48.2319 237.633 70.9163 233.151 74.0452C228.668 77.1741 263.033 77.9563 263.033 77.9563C263.033 77.9563 260.792 59.9652 263.033 55.2719L240.621 48.2319Z" fill="#A0616A"/>
<path d="M338.218 162.715C338.218 162.715 362.281 163.238 359.074 170.3C355.867 177.361 335.397 169.108 335.397 169.108L338.218 162.715Z" fill="#A0616A"/>
<path d="M237.674 56.3085C240.551 57.7377 243.819 58.1306 246.944 57.4227C250.069 56.7149 252.866 54.9483 254.878 52.4116C257.429 49.0144 258.908 44.0675 262.976 43.0112C265.632 42.3216 268.695 43.6231 271.066 42.2229C275.492 39.61 272.384 31.3276 276.493 28.2244C274.725 28.1996 273.031 27.499 271.747 26.2615C270.462 25.0241 269.68 23.3401 269.557 21.5432C269.452 22.9898 267.585 23.6382 266.224 23.2151C264.862 22.792 263.793 21.7249 262.521 21.0722C260.3 19.932 257.671 20.1396 255.194 20.3744C248.866 20.9743 242.038 21.793 237.389 26.2091C233.02 30.3586 231.568 36.994 232.419 43.0172C233.27 49.0404 234.772 51.0174 237.951 56.1685L237.674 56.3085Z" fill="#2F2E41"/>
<path d="M283.803 84.6865V93.9525L277.415 141.2L277.071 143.721C277.071 143.721 277.827 145.568 278.773 148.51C280.376 153.468 282.543 161.537 282.627 169.138C282.653 170.63 282.582 172.122 282.414 173.605C281.269 183.375 280.979 193.145 280.91 197.421C280.887 198.846 280.887 199.658 280.887 199.658L211.436 197.359C211.87 196.378 212.254 195.376 212.588 194.356C215.097 186.95 216.006 179.092 215.252 171.307C214.573 164.824 213.512 147.162 212.55 129.568C212.275 124.565 212.008 119.561 211.756 114.825C211.68 113.408 211.665 111.998 211.695 110.588C211.882 102.348 213.869 94.2505 217.517 86.8673C221.165 79.484 226.384 72.9957 232.805 67.8613C232.805 67.8613 234.21 67.9226 236.423 68.0529C243.383 68.459 258.373 69.5165 263.082 71.2559C263.298 71.3323 263.51 71.4218 263.715 71.5241C265.989 72.6505 270.744 74.8803 275.232 76.9492C280.536 79.4012 283.803 84.6865 283.803 84.6865Z" fill="#D0CDE1"/>
<path d="M223.213 126.357L228.519 117.169C228.519 117.169 242.358 114.657 250.891 121.334C259.425 128.011 264.829 129.381 264.829 129.381L287.677 137.321C287.677 137.321 311.567 144.989 320.195 149.97L342.761 162.998L338.025 174.266C338.025 174.266 331.388 170.434 327.597 170.871C323.805 171.307 316.789 168.132 316.789 168.132L269.766 151.484L223.213 126.357Z" fill="#D0CDE1"/>
<path d="M118.163 68.8111L96.13 77.3323L104.356 98.6019L126.389 90.0807L118.163 68.8111Z" fill="#6C63FF"/>
<path d="M122.263 88.6024L99.394 97.5859L90.8557 75.1624L113.724 66.179L122.263 88.6024ZM100.11 96.0155L120.692 87.9304L113.008 67.7493L92.426 75.8344L100.11 96.0155Z" fill="#3F3D56"/>
<path d="M84.3326 365.105L83.3548 364.738C83.1399 364.657 61.7536 356.448 51.7353 337.834C41.7166 319.219 46.6222 296.806 46.673 296.582L46.9039 295.562L47.8813 295.929C48.0961 296.01 69.482 304.219 79.5008 322.833C89.5195 341.448 84.6138 363.861 84.5631 364.085L84.3326 365.105ZM53.3395 336.967C61.8096 352.705 78.7098 360.773 82.9917 362.615C83.8059 358.017 86.3591 339.423 77.8965 323.7C69.4349 307.978 52.5281 299.898 48.2443 298.052C47.4297 302.653 44.8775 321.245 53.3395 336.967Z" fill="#3F3D56"/>
<path d="M59.4562 331.243C77.2664 342.157 84.1256 363.835 84.1256 363.835C84.1256 363.835 62.1089 367.818 44.2987 356.904C26.4885 345.991 19.6293 324.312 19.6293 324.312C19.6293 324.312 41.646 320.329 59.4562 331.243Z" fill="#6C63FF"/>
</g>
<defs>
<clipPath id="clip0">
<rect width="645.21" height="378.879" fill="white"/>
</clipPath>
</defs>
</svg>
