<svg width="197" height="196" viewBox="0 0 197 196" fill="none" xmlns="http://www.w3.org/2000/svg">
<g filter="url(#filter0_d)">
<mask id="path-1-inside-1" fill="white">
<path fill-rule="evenodd" clip-rule="evenodd" d="M56 0C52.134 0 49 3.13401 49 7V67H28C14.7452 67 4 77.7452 4 91C4 104.255 14.7452 115 28 115H49V181C49 184.866 52.134 188 56 188H186C189.866 188 193 184.866 193 181V7C193 3.13401 189.866 0 186 0H56Z"/>
</mask>
<path fill-rule="evenodd" clip-rule="evenodd" d="M56 0C52.134 0 49 3.13401 49 7V67H28C14.7452 67 4 77.7452 4 91C4 104.255 14.7452 115 28 115H49V181C49 184.866 52.134 188 56 188H186C189.866 188 193 184.866 193 181V7C193 3.13401 189.866 0 186 0H56Z" fill="#E5580C"/>
<path d="M49 67V70H52V67H49ZM49 115H52V112H49V115ZM52 7C52 4.79086 53.7909 3 56 3V-3C50.4771 -3 46 1.47716 46 7H52ZM52 67V7H46V67H52ZM28 70H49V64H28V70ZM7 91C7 79.402 16.402 70 28 70V64C13.0883 64 1 76.0883 1 91H7ZM28 112C16.402 112 7 102.598 7 91H1C1 105.912 13.0883 118 28 118V112ZM49 112H28V118H49V112ZM52 181V115H46V181H52ZM56 185C53.7909 185 52 183.209 52 181H46C46 186.523 50.4772 191 56 191V185ZM186 185H56V191H186V185ZM190 181C190 183.209 188.209 185 186 185V191C191.523 191 196 186.523 196 181H190ZM190 7V181H196V7H190ZM186 3C188.209 3 190 4.79086 190 7H196C196 1.47715 191.523 -3 186 -3V3ZM56 3H186V-3H56V3Z" fill="white" mask="url(#path-1-inside-1)"/>
</g>
<path d="M30.554 86.9348C28.5582 86.9348 26.9351 88.5579 26.9351 90.5537C26.9351 92.5495 28.5582 94.1725 30.554 94.1725C32.5498 94.1707 34.173 92.5476 34.173 90.5537C34.173 88.5598 32.5498 86.9348 30.554 86.9348ZM30.554 93.4216C28.9719 93.4216 27.6861 92.1339 27.6861 90.5537C27.6861 88.9716 28.9719 87.6858 30.554 87.6858C32.1361 87.6858 33.422 88.9716 33.422 90.5537C33.422 92.1339 32.1361 93.4216 30.554 93.4216Z" fill="white"/>
<path d="M44.9655 88.5436C44.9299 88.2763 44.719 88.0684 44.4517 88.0328L41.0716 87.5902C40.8399 86.7645 40.5102 85.9685 40.0884 85.2171L42.1676 82.5113C42.3309 82.2974 42.3339 82.0004 42.1706 81.7866C41.3567 80.7114 40.4003 79.755 39.3281 78.9442C39.1142 78.7808 38.8172 78.7808 38.6033 78.9471L35.8975 81.0262C35.146 80.6045 34.35 80.2718 33.5213 80.0401L33.0787 76.6542C33.0431 76.3869 32.8352 76.176 32.5679 76.1403C31.2105 75.9532 29.9036 75.9532 28.5492 76.1403C28.2818 76.176 28.0739 76.3869 28.0383 76.6542L27.5957 80.0342C26.767 80.2659 25.968 80.5985 25.2166 81.0203L22.5107 78.9412C22.2969 78.7778 21.9998 78.7749 21.786 78.9382C21.2989 79.3065 20.8236 79.7164 20.3722 80.156L20.1524 80.3758C19.7187 80.8183 19.3118 81.2906 18.9435 81.7777C18.7801 81.9915 18.7831 82.2885 18.9465 82.5024L21.0256 85.2082C20.6009 85.9626 20.2712 86.7616 20.0365 87.5902L16.6505 88.0328C16.3832 88.0684 16.1723 88.2763 16.1366 88.5436C16.0564 89.1317 16.0089 89.7376 16 90.3495V90.7653C16.0089 91.3682 16.0535 91.9712 16.1366 92.5622C16.1723 92.8296 16.3832 93.0375 16.6505 93.0731L20.0306 93.5157C20.2652 94.3473 20.5949 95.1433 21.0197 95.8977L18.9405 98.6035C18.7771 98.8174 18.7742 99.1144 18.9375 99.3282C19.3058 99.8153 19.7128 100.288 20.1524 100.733L20.3722 100.956C20.8177 101.392 21.2929 101.802 21.78 102.171C21.9939 102.334 22.2909 102.331 22.5048 102.168L25.2106 100.089C25.9651 100.51 26.7611 100.843 27.5898 101.075L28.0353 104.455C28.0709 104.722 28.2789 104.933 28.5462 104.969C29.2234 105.061 29.8976 105.108 30.5511 105.108C31.2075 105.108 31.8877 105.061 32.5679 104.966C32.8352 104.93 33.0431 104.716 33.0787 104.452L33.5213 101.069C34.35 100.834 35.146 100.504 35.8975 100.083L38.6033 102.162C38.8172 102.325 39.1142 102.328 39.3281 102.165C40.4033 101.351 41.3597 100.394 42.1706 99.3223C42.3339 99.1084 42.3309 98.8114 42.1676 98.5976L40.0884 95.8918C40.5102 95.1403 40.8399 94.3443 41.0716 93.5186L44.4517 93.0761C44.719 93.0404 44.9299 92.8325 44.9655 92.5652C45.0576 91.888 45.1081 91.2108 45.1081 90.5544C45.1081 89.901 45.0606 89.2208 44.9655 88.5436ZM43.8368 91.9474L40.5161 92.3811C40.2696 92.4137 40.0706 92.5949 40.0112 92.8355C39.7736 93.8186 39.3875 94.7572 38.8558 95.6245C38.7251 95.8353 38.74 96.1056 38.8914 96.3016L40.9349 98.9599C40.3468 99.6846 39.6875 100.344 38.9627 100.932L36.3074 98.8916C36.1113 98.7401 35.841 98.7253 35.6301 98.856C34.7628 99.3876 33.8243 99.7767 32.8411 100.014C32.6005 100.074 32.4193 100.273 32.3896 100.519L31.956 103.84C31.0115 103.941 30.1085 103.941 29.167 103.84L28.7333 100.519C28.7006 100.273 28.5195 100.074 28.2789 100.014C27.2928 99.7767 26.3542 99.3876 25.4839 98.856C25.273 98.7282 25.0027 98.7401 24.8067 98.8916L22.1483 100.935C21.8276 100.674 21.5127 100.394 21.2187 100.106L21.0078 99.8955C20.7167 99.5985 20.4375 99.2866 20.1791 98.9659L22.2196 96.3106C22.3711 96.1145 22.386 95.8442 22.2553 95.6334C21.7236 94.7661 21.3315 93.8246 21.0939 92.8385C21.0345 92.5979 20.8355 92.4167 20.589 92.384L17.2683 91.9474C17.2267 91.5524 17.2029 91.1514 17.197 90.7564V90.3584C17.2029 89.9574 17.2267 89.5565 17.2683 89.1585L20.589 88.7248C20.8355 88.6921 21.0345 88.511 21.0939 88.2704C21.3315 87.2843 21.7206 86.3428 22.2553 85.4755C22.386 85.2646 22.3711 84.9943 22.2196 84.7983L20.1791 82.143C20.4405 81.8222 20.7167 81.5133 21.0048 81.2193L21.2157 81.0084C21.5157 80.7144 21.8305 80.4352 22.1513 80.1738L24.8097 82.2172C25.0057 82.3687 25.276 82.3836 25.4869 82.2529C26.3542 81.7212 27.2957 81.3321 28.2818 81.0945C28.5224 81.0381 28.7036 80.8361 28.7363 80.5896L29.1699 77.269C30.1115 77.171 31.0174 77.171 31.959 77.269L32.3926 80.5896C32.4253 80.8361 32.6065 81.0351 32.8441 81.0945C33.8302 81.3321 34.7658 81.7212 35.6331 82.2529C35.844 82.3836 36.1143 82.3687 36.3103 82.2172L38.9657 80.1768C39.6904 80.7648 40.3498 81.4272 40.9379 82.1489L38.8944 84.8072C38.7429 85.0032 38.7281 85.2735 38.8588 85.4844C39.3875 86.3517 39.7766 87.2873 40.0142 88.2734C40.0736 88.5139 40.2726 88.6951 40.5191 88.7278L43.8339 89.1585C43.8844 89.6307 43.9081 90.097 43.9081 90.5544C43.9081 91.0089 43.8873 91.4781 43.8368 91.9474Z" fill="white"/>
<defs>
<filter id="filter0_d" x="0" y="0" width="197" height="196" filterUnits="userSpaceOnUse" color-interpolation-filters="sRGB">
<feFlood flood-opacity="0" result="BackgroundImageFix"/>
<feColorMatrix in="SourceAlpha" type="matrix" values="0 0 0 0 0 0 0 0 0 0 0 0 0 0 0 0 0 0 127 0"/>
<feOffset dy="4"/>
<feGaussianBlur stdDeviation="2"/>
<feColorMatrix type="matrix" values="0 0 0 0 0 0 0 0 0 0 0 0 0 0 0 0 0 0 0.25 0"/>
<feBlend mode="normal" in2="BackgroundImageFix" result="effect1_dropShadow"/>
<feBlend mode="normal" in="SourceGraphic" in2="effect1_dropShadow" result="shape"/>
</filter>
</defs>
</svg>
